<svg xmlns="http://www.w3.org/2000/svg" xmlns:xlink="http://www.w3.org/1999/xlink" width="2000" zoomAndPan="magnify" viewBox="0 0 1500 1499.999933" height="2000" preserveAspectRatio="xMidYMid meet" version="1.0"><defs><clipPath id="daa99f3071"><path d="M 4 205.625 L 1497 205.625 L 1497 1294.625 L 4 1294.625 Z M 4 205.625 " clip-rule="nonzero"/></clipPath><clipPath id="3df829a6c4"><path d="M 4 205.625 L 1497 205.625 L 1497 1294.625 L 4 1294.625 Z M 4 205.625 " clip-rule="nonzero"/></clipPath></defs><g clip-path="url(#daa99f3071)"><path fill="#000000" d="M 78.15625 710.347656 C 79.371094 711.175781 80.515625 712.089844 81.597656 713.082031 C 84.0625 717.367188 85.839844 721.914062 86.941406 726.730469 C 88.039062 731.550781 88.410156 736.421875 88.050781 741.347656 C 88.0625 751.601562 89.621094 761.609375 92.722656 771.382812 C 97.910156 786.890625 101.914062 802.695312 104.738281 818.804688 C 107.472656 832.226562 110.292969 846.148438 114.359375 859.613281 L 116.035156 865.082031 C 119.5 875.765625 122.398438 886.601562 124.734375 897.585938 C 126.511719 906.859375 127.480469 916.308594 128.464844 926.289062 L 129.257812 933.535156 C 133.152344 964.59375 139.097656 995.257812 147.09375 1025.523438 C 150.34375 1039.277344 154.855469 1052.605469 160.632812 1065.503906 C 166.40625 1078.402344 173.34375 1090.644531 181.441406 1102.230469 C 205.054688 1134.027344 241.09375 1159.023438 273.179688 1181.460938 C 290.824219 1193.988281 309.222656 1205.28125 328.378906 1215.332031 C 347.539062 1225.386719 367.28125 1234.113281 387.613281 1241.511719 C 426.976562 1254.234375 467.09375 1263.800781 507.960938 1270.214844 C 598.453125 1285.558594 689.585938 1293.570312 781.367188 1294.242188 C 785.34375 1294.328125 789.222656 1294.417969 793.199219 1294.417969 C 860.648438 1292.363281 927.371094 1284.296875 993.367188 1270.214844 C 1034.269531 1263.800781 1074.417969 1254.234375 1113.816406 1241.511719 C 1134.214844 1234.085938 1154.023438 1225.320312 1173.238281 1215.222656 C 1192.457031 1205.121094 1210.910156 1193.777344 1228.597656 1181.1875 C 1260.386719 1159.023438 1296.238281 1134.027344 1319.988281 1102.230469 C 1328.070312 1090.636719 1334.996094 1078.386719 1340.757812 1065.480469 C 1346.519531 1052.574219 1351.015625 1039.242188 1354.25 1025.484375 C 1362.246094 995.21875 1368.1875 964.558594 1372.082031 933.5 L 1372.792969 926.253906 C 1373.847656 916.308594 1374.816406 906.824219 1376.519531 897.550781 C 1378.863281 886.566406 1381.761719 875.730469 1385.21875 865.042969 L 1386.898438 859.574219 C 1390.960938 846.0625 1393.78125 832.226562 1396.515625 818.851562 C 1399.289062 802.703125 1403.292969 786.867188 1408.535156 771.34375 C 1411.632812 761.574219 1413.191406 751.5625 1413.207031 741.3125 C 1412.84375 736.382812 1413.210938 731.511719 1414.308594 726.695312 C 1415.410156 721.875 1417.191406 717.328125 1419.65625 713.046875 C 1420.945312 711.867188 1422.332031 710.808594 1423.808594 709.875 C 1431.085938 704.351562 1437.90625 698.3125 1444.269531 691.753906 C 1450.628906 685.195312 1456.460938 678.195312 1461.761719 670.753906 C 1467.0625 663.3125 1471.773438 655.511719 1475.890625 647.355469 C 1480.007812 639.195312 1483.488281 630.777344 1486.328125 622.089844 C 1488.117188 617.546875 1489.667969 612.921875 1490.984375 608.21875 C 1492.300781 603.515625 1493.375 598.757812 1494.203125 593.945312 C 1495.035156 589.132812 1495.621094 584.289062 1495.957031 579.417969 C 1496.292969 574.546875 1496.382812 569.667969 1496.222656 564.785156 C 1496.0625 559.90625 1495.65625 555.046875 1495 550.207031 C 1494.34375 545.367188 1493.445312 540.570312 1492.300781 535.824219 C 1491.15625 531.074219 1489.773438 526.398438 1488.152344 521.792969 C 1486.53125 517.183594 1484.683594 512.671875 1482.601562 508.253906 C 1473.839844 487.4375 1463.214844 467.625 1450.726562 448.8125 C 1413.019531 393.171875 1357.308594 355.980469 1313.066406 329.753906 C 1260.085938 298.402344 1204.636719 280.738281 1142.90625 262.539062 C 1114.921875 254.238281 1086.140625 248.40625 1058.140625 242.851562 C 1004.742188 231.167969 950.890625 222.214844 896.582031 216 C 861.972656 212.558594 835.835938 211.027344 811.902344 210.792969 C 803.316406 210.542969 794.785156 209.746094 786.300781 208.40625 C 774.691406 206.46875 763.007812 205.640625 751.242188 205.917969 C 738.703125 206.441406 726.386719 208.21875 714.332031 209.898438 C 706.566406 211.042969 698.710938 212.183594 690.84375 212.894531 C 677.710938 213.980469 664.554688 214.398438 651.375 214.136719 C 638.039062 214.222656 624.359375 214.136719 610.675781 215.453125 C 554.316406 221.546875 498.449219 230.660156 443.078125 242.800781 C 415.265625 248.359375 386.484375 254.1875 358.496094 262.492188 C 296.683594 280.6875 241.316406 298.351562 188.339844 329.703125 C 144.011719 355.929688 88.382812 393.097656 50.59375 448.761719 C 38.167969 467.597656 27.570312 487.410156 18.804688 508.203125 C 16.707031 512.617188 14.84375 517.128906 13.210938 521.734375 C 11.578125 526.34375 10.183594 531.019531 9.027344 535.769531 C 7.871094 540.515625 6.964844 545.3125 6.296875 550.15625 C 5.632812 554.996094 5.21875 559.859375 5.050781 564.742188 C 4.886719 569.628906 4.96875 574.507812 5.300781 579.382812 C 5.632812 584.261719 6.214844 589.105469 7.042969 593.921875 C 7.871094 598.742188 8.941406 603.503906 10.257812 608.207031 C 11.570312 612.914062 13.125 617.542969 14.914062 622.089844 C 17.777344 630.84375 21.292969 639.324219 25.457031 647.539062 C 29.617188 655.753906 34.382812 663.601562 39.746094 671.085938 C 45.109375 678.570312 51.011719 685.605469 57.449219 692.1875 C 63.890625 698.769531 70.792969 704.820312 78.15625 710.347656 Z M 78.15625 710.347656 " fill-opacity="1" fill-rule="nonzero"/></g><path fill="#bcbcbc" d="M 1387.445312 728.820312 C 1387.097656 732.710938 1386.921875 736.414062 1386.75 740.007812 C 1386.808594 747.578125 1385.777344 755 1383.652344 762.269531 C 1377.988281 779.039062 1373.632812 796.144531 1370.578125 813.582031 C 1367.847656 827.007812 1365.285156 839.6875 1361.582031 851.917969 L 1359.90625 857.300781 C 1356.160156 868.886719 1353.007812 880.632812 1350.449219 892.539062 C 1348.421875 902.957031 1347.367188 913.472656 1346.394531 923.542969 L 1345.601562 930.691406 C 1341.882812 960.585938 1336.140625 990.085938 1328.375 1019.195312 C 1325.566406 1031.207031 1321.664062 1042.855469 1316.679688 1054.140625 C 1311.691406 1065.425781 1305.703125 1076.152344 1298.710938 1086.320312 C 1277.585938 1114.660156 1243.433594 1138.425781 1212.960938 1159.660156 C 1196.296875 1171.507812 1178.914062 1182.183594 1160.8125 1191.691406 C 1142.710938 1201.199219 1124.054688 1209.449219 1104.84375 1216.441406 C 1066.773438 1228.679688 1027.984375 1237.867188 988.472656 1244 C 920.914062 1256.429688 850.984375 1269.171875 781.765625 1267.617188 C 691.417969 1266.976562 601.703125 1259.101562 512.621094 1244 C 473.171875 1237.886719 434.445312 1228.722656 396.4375 1216.515625 C 377.15625 1209.484375 358.429688 1201.191406 340.261719 1191.640625 C 322.09375 1182.089844 304.648438 1171.367188 287.921875 1159.472656 C 257.894531 1138.453125 223.808594 1114.722656 202.617188 1086.34375 C 195.632812 1076.167969 189.640625 1065.441406 184.636719 1054.15625 C 179.636719 1042.875 175.714844 1031.226562 172.867188 1019.21875 C 165.1875 990.09375 159.445312 960.59375 155.640625 930.714844 L 154.933594 923.566406 C 153.878906 913.5 152.820312 902.980469 150.78125 892.566406 C 148.300781 880.648438 145.183594 868.902344 141.425781 857.324219 L 139.746094 851.941406 C 136.019531 839.660156 133.535156 827.082031 130.738281 813.605469 C 127.648438 796.179688 123.296875 779.078125 117.675781 762.292969 C 115.550781 755.023438 114.519531 747.605469 114.582031 740.03125 C 114.40625 736.414062 114.234375 732.710938 113.785156 728.84375 C 119.265625 732.996094 124.648438 737.320312 129.769531 741.832031 C 192.289062 796.851562 251.980469 815.570312 327.476562 839.339844 C 405.253906 862.085938 484.335938 878.539062 564.730469 888.699219 C 595.464844 893.125 631.132812 898.058594 666.710938 900.183594 C 671.570312 900.535156 676.652344 901.15625 681.910156 901.777344 C 689.902344 902.898438 697.9375 903.542969 706.007812 903.714844 C 706.890625 903.714844 707.769531 903.628906 708.566406 903.628906 L 718.109375 903.367188 C 791.238281 902.65625 864.082031 897.769531 936.648438 888.699219 C 1017.015625 878.550781 1096.070312 862.09375 1173.816406 839.339844 C 1249.398438 815.570312 1309.089844 796.851562 1371.613281 741.832031 C 1376.683594 737.296875 1382.0625 732.972656 1387.445312 728.820312 Z M 1387.445312 728.820312 " fill-opacity="1" fill-rule="nonzero"/><path fill="#d3d3d3" d="M 1406.96875 518.707031 C 1408.128906 522.308594 1409.128906 525.953125 1409.960938 529.644531 C 1410.792969 533.339844 1411.457031 537.058594 1411.949219 540.8125 C 1412.445312 544.5625 1412.769531 548.328125 1412.925781 552.109375 C 1413.078125 555.890625 1413.058594 559.671875 1412.871094 563.453125 C 1412.683594 567.230469 1412.324219 570.996094 1411.792969 574.742188 C 1411.265625 578.488281 1410.566406 582.203125 1409.703125 585.886719 C 1408.835938 589.570312 1407.804688 593.207031 1406.609375 596.800781 C 1405.414062 600.390625 1404.058594 603.917969 1402.542969 607.386719 C 1398.488281 616.8125 1393.761719 625.882812 1388.355469 634.605469 C 1382.953125 643.328125 1376.933594 651.601562 1370.300781 659.425781 C 1363.667969 667.253906 1356.492188 674.546875 1348.773438 681.304688 C 1341.058594 688.0625 1332.882812 694.214844 1324.25 699.757812 C 1292.910156 720.042969 1259.742188 736.679688 1224.742188 749.664062 C 1206.59375 736.535156 1187.34375 725.289062 1166.992188 715.929688 C 1161.046875 712.914062 1155.335938 709.5 1149.867188 705.6875 C 1141.039062 699.269531 1131.476562 694.265625 1121.171875 690.671875 C 1097.945312 683.769531 1074.457031 675.121094 1051.851562 666.816406 C 1015.546875 652.351562 978.3125 640.898438 940.152344 632.457031 C 897.203125 625.394531 853.96875 622.128906 810.449219 622.664062 L 808.855469 622.664062 C 803.503906 622.503906 798.179688 622.0625 792.875 621.332031 C 783.117188 619.773438 773.34375 619.6875 763.558594 621.070312 C 754.480469 622.273438 745.417969 622.183594 736.367188 620.8125 C 727.742188 619.628906 719.085938 619.363281 710.40625 620.015625 C 696.277344 621.257812 683.066406 622.5 668.898438 622.664062 C 632.636719 622.683594 596.671875 625.949219 561.003906 632.457031 C 522.859375 640.898438 485.648438 652.359375 449.367188 666.839844 C 426.671875 675.144531 403.273438 683.796875 380.046875 690.695312 C 369.734375 694.273438 360.167969 699.277344 351.351562 705.710938 C 345.867188 709.503906 340.160156 712.917969 334.226562 715.953125 C 318.855469 723.164062 304.019531 731.347656 289.722656 740.503906 C 284.601562 706.265625 277.625 672.410156 268.792969 638.933594 C 259.53125 604.332031 252.367188 569.296875 247.308594 533.835938 C 244.289062 512.765625 239.8125 492.011719 233.886719 471.570312 C 229.128906 456.992188 225.59375 442.121094 223.285156 426.960938 C 220.972656 411.796875 219.917969 396.550781 220.117188 381.214844 C 303.554688 336.179688 399.71875 314.003906 492.515625 297.222656 C 554.152344 284.734375 616.410156 277.8125 679.289062 276.449219 L 683.265625 276.449219 L 691.828125 276.539062 C 800.082031 277.246094 902.335938 277.855469 1008.726562 297.195312 C 1116.363281 316.726562 1228.582031 343.1875 1320.234375 404.683594 C 1359.195312 430.738281 1385.15625 464.832031 1406.96875 518.707031 Z M 1406.96875 518.707031 " fill-opacity="1" fill-rule="nonzero"/><path fill="#d3d3d3" d="M 277.617188 748.78125 L 277.617188 748.882812 C 277.269531 749.144531 276.824219 749.417969 276.476562 749.675781 C 241.476562 736.691406 208.308594 720.054688 176.96875 699.769531 C 168.34375 694.21875 160.171875 688.0625 152.460938 681.300781 C 144.746094 674.539062 137.574219 667.242188 130.941406 659.417969 C 124.308594 651.59375 118.289062 643.320312 112.878906 634.605469 C 107.472656 625.886719 102.738281 616.816406 98.675781 607.398438 C 97.167969 603.929688 95.820312 600.398438 94.632812 596.804688 C 93.449219 593.210938 92.425781 589.574219 91.566406 585.890625 C 90.707031 582.203125 90.015625 578.488281 89.492188 574.742188 C 88.96875 570.996094 88.613281 567.234375 88.429688 563.453125 C 88.246094 559.675781 88.230469 555.894531 88.386719 552.113281 C 88.542969 548.335938 88.871094 544.570312 89.367188 540.820312 C 89.863281 537.066406 90.527344 533.347656 91.359375 529.65625 C 92.191406 525.964844 93.1875 522.320312 94.351562 518.71875 C 116.160156 464.847656 142.121094 430.75 181.054688 404.695312 C 189.183594 399.226562 197.660156 394.105469 206.136719 389.15625 C 205.789062 392.6875 205.515625 395.871094 205.515625 396.492188 L 206.667969 396.578125 C 208.457031 423.242188 213.28125 449.347656 221.148438 474.890625 C 226.859375 494.765625 231.214844 514.929688 234.222656 535.390625 C 239.355469 571.378906 246.589844 606.945312 255.933594 642.078125 C 265.320312 677.207031 272.550781 712.777344 277.617188 748.78125 Z M 277.617188 748.78125 " fill-opacity="1" fill-rule="nonzero"/><path fill="#f4f4f4" d="M 1161.3125 727.847656 C 1178.339844 735.742188 1194.613281 744.957031 1210.140625 755.496094 C 1147.039062 780.085938 1082.140625 798.28125 1015.453125 810.078125 L 921.585938 827.292969 C 910.636719 829.332031 899.328125 831.359375 888.207031 832.5 C 874.957031 833.917969 861.1875 834.003906 847.855469 834.09375 C 812.894531 834.367188 784.273438 835.683594 757.792969 838.15625 L 752.3125 838.691406 C 732.617188 839.921875 712.988281 839.277344 693.417969 836.753906 C 680.082031 835.507812 666.3125 834.179688 653.425781 834.09375 C 640.089844 834.003906 626.308594 833.917969 613.074219 832.5 C 601.890625 831.359375 590.554688 829.332031 579.605469 827.292969 L 485.828125 810.078125 C 419.132812 798.292969 354.230469 780.097656 291.125 755.496094 C 306.648438 744.9375 322.925781 735.722656 339.96875 727.851562 C 346.421875 724.574219 352.632812 720.894531 358.609375 716.8125 C 366.3125 711.050781 374.699219 706.574219 383.773438 703.386719 C 407.386719 696.3125 431.097656 687.660156 453.964844 679.269531 C 489.609375 665.042969 526.167969 653.769531 563.636719 645.449219 C 598.523438 639.109375 633.691406 635.929688 669.148438 635.902344 C 683.8125 635.726562 697.320312 634.496094 712.332031 633.078125 C 719.925781 632.621094 727.488281 632.914062 735.023438 633.960938 C 745.289062 635.449219 755.5625 635.507812 765.84375 634.136719 C 774.394531 633.019531 782.929688 633.136719 791.445312 634.496094 C 796.925781 635.117188 802.480469 635.738281 808.65625 635.902344 L 810.273438 635.902344 C 853.027344 635.316406 895.5 638.5 937.691406 645.449219 C 975.148438 653.769531 1011.695312 665.042969 1047.328125 679.269531 C 1070.195312 687.660156 1093.769531 696.3125 1117.433594 703.386719 C 1126.542969 706.558594 1134.960938 711.03125 1142.683594 716.8125 C 1148.644531 720.914062 1154.851562 724.59375 1161.3125 727.847656 Z M 1161.3125 727.847656 " fill-opacity="1" fill-rule="nonzero"/><path fill="#f4f4f4" d="M 1458.269531 518.792969 C 1460.015625 522.453125 1461.574219 526.195312 1462.933594 530.015625 C 1464.296875 533.835938 1465.457031 537.714844 1466.417969 541.65625 C 1467.378906 545.597656 1468.136719 549.578125 1468.683594 553.597656 C 1469.234375 557.617188 1469.574219 561.652344 1469.707031 565.707031 C 1469.839844 569.761719 1469.761719 573.8125 1469.476562 577.859375 C 1469.1875 581.902344 1468.695312 585.925781 1467.992188 589.917969 C 1467.292969 593.914062 1466.386719 597.863281 1465.273438 601.765625 C 1464.164062 605.664062 1462.855469 609.5 1461.351562 613.265625 C 1458.945312 620.742188 1455.984375 627.988281 1452.464844 635.011719 C 1448.949219 642.03125 1444.917969 648.742188 1440.375 655.148438 C 1435.828125 661.550781 1430.824219 667.570312 1425.355469 673.207031 C 1419.890625 678.84375 1414.023438 684.03125 1407.761719 688.769531 C 1406.171875 689.925781 1404.320312 691.339844 1402.542969 692.921875 C 1386.566406 702.578125 1371.558594 713.5625 1357.519531 725.875 C 1298.351562 777.894531 1240.613281 796.082031 1167.378906 819.039062 C 1090.734375 841.472656 1012.792969 857.667969 933.554688 867.617188 C 861.808594 876.558594 789.785156 881.390625 717.488281 882.113281 L 707.871094 882.371094 C 699.957031 882.359375 692.085938 881.769531 684.257812 880.605469 C 678.703125 879.984375 673.136719 879.363281 667.84375 879.015625 C 633.144531 876.890625 597.914062 872.042969 567.625 867.617188 C 488.363281 857.65625 410.390625 841.464844 333.714844 819.039062 C 260.605469 796.082031 202.765625 777.894531 143.699219 725.875 C 129.644531 713.574219 114.625 702.597656 98.636719 692.945312 C 96.792969 691.289062 94.851562 689.761719 92.808594 688.359375 C 86.632812 683.621094 80.847656 678.445312 75.453125 672.828125 C 70.0625 667.214844 65.121094 661.222656 60.636719 654.859375 C 56.152344 648.496094 52.175781 641.828125 48.703125 634.859375 C 45.226562 627.894531 42.300781 620.703125 39.917969 613.289062 C 38.410156 609.523438 37.105469 605.691406 35.996094 601.789062 C 34.886719 597.886719 33.980469 593.9375 33.28125 589.941406 C 32.578125 585.949219 32.085938 581.925781 31.800781 577.882812 C 31.515625 573.835938 31.4375 569.785156 31.570312 565.730469 C 31.703125 561.675781 32.046875 557.640625 32.59375 553.621094 C 33.144531 549.601562 33.902344 545.621094 34.863281 541.683594 C 35.824219 537.742188 36.984375 533.859375 38.347656 530.039062 C 39.707031 526.21875 41.261719 522.480469 43.011719 518.820312 C 51.113281 499.554688 60.945312 481.214844 72.503906 463.800781 C 107.300781 412.488281 159.832031 377.421875 201.75 352.597656 C 252.167969 322.839844 305.941406 305.699219 365.976562 287.960938 C 392.820312 280.105469 420.996094 274.363281 448.460938 268.890625 C 502.832031 256.898438 557.695312 247.886719 613.050781 241.855469 C 625.574219 240.710938 638.027344 240.800781 651.363281 240.710938 C 665.03125 240.710938 679.175781 240.710938 693.394531 239.394531 C 701.695312 238.597656 709.910156 237.445312 718.125 236.214844 C 729.953125 234.535156 741.078125 232.945312 752.375 232.410156 C 762.566406 232.3125 772.695312 233.078125 782.757812 234.707031 C 792.320312 236.246094 801.945312 237.128906 811.628906 237.355469 C 834.753906 237.53125 860.195312 239.121094 894.011719 242.390625 C 947.523438 247.6875 1001.121094 258.464844 1053.082031 268.890625 C 1080.285156 274.363281 1108.535156 280.078125 1135.378906 287.960938 C 1195.425781 305.710938 1249.199219 322.851562 1299.53125 352.597656 C 1341.476562 377.460938 1393.980469 412.488281 1428.777344 463.800781 C 1440.300781 481.226562 1450.128906 499.554688 1458.269531 518.792969 Z M 1419.058594 613.738281 C 1420.761719 609.746094 1422.28125 605.6875 1423.617188 601.558594 C 1424.949219 597.429688 1426.097656 593.25 1427.054688 589.015625 C 1428.015625 584.785156 1428.78125 580.515625 1429.355469 576.214844 C 1429.929688 571.914062 1430.308594 567.597656 1430.492188 563.261719 C 1430.675781 558.925781 1430.664062 554.589844 1430.457031 550.253906 C 1430.25 545.921875 1429.851562 541.605469 1429.253906 537.304688 C 1428.660156 533.007812 1427.871094 528.746094 1426.890625 524.519531 C 1425.910156 520.292969 1424.742188 516.117188 1423.382812 511.996094 C 1400.082031 454.679688 1372.171875 418.195312 1330.054688 390.027344 C 1235.753906 326.792969 1121.410156 299.671875 1011.910156 279.804688 C 903.925781 260.191406 800.964844 259.582031 691.925781 258.875 L 683.351562 258.785156 C 618.035156 259.769531 553.371094 266.777344 489.359375 279.804688 C 379.871094 299.695312 265.527344 326.792969 171.140625 390.027344 C 129.109375 418.195312 101.195312 454.664062 77.933594 511.996094 C 76.570312 516.117188 75.398438 520.289062 74.414062 524.515625 C 73.429688 528.742188 72.636719 533.007812 72.039062 537.304688 C 71.441406 541.601562 71.035156 545.917969 70.828125 550.253906 C 70.621094 554.589844 70.609375 558.925781 70.792969 563.261719 C 70.976562 567.597656 71.355469 571.917969 71.933594 576.21875 C 72.507812 580.519531 73.273438 584.789062 74.238281 589.019531 C 75.199219 593.253906 76.347656 597.433594 77.6875 601.5625 C 79.027344 605.6875 80.550781 609.746094 82.257812 613.738281 C 86.582031 624.023438 91.652344 633.929688 97.476562 643.449219 C 103.296875 652.964844 109.800781 661.996094 116.984375 670.53125 C 124.171875 679.066406 131.957031 687.011719 140.347656 694.371094 C 148.734375 701.726562 157.628906 708.414062 167.027344 714.425781 C 203.777344 737.894531 242.6875 756.957031 283.757812 771.605469 C 348.203125 796.878906 414.511719 815.527344 482.683594 827.542969 L 576.460938 844.769531 C 587.757812 846.796875 599.414062 849.007812 611.257812 850.152344 C 625.390625 851.65625 639.605469 851.742188 653.289062 851.832031 C 665.480469 851.917969 678.28125 853.160156 691.816406 854.390625 C 706.390625 855.808594 721.21875 857.226562 735.796875 857.226562 C 742.007812 857.226562 748.148438 856.953125 754.25 856.34375 L 759.542969 855.808594 C 785.503906 853.324219 813.578125 852.078125 848.015625 851.832031 C 862.054688 851.972656 876.0625 851.414062 890.046875 850.152344 C 901.875 849.007812 913.65625 846.796875 924.929688 844.769531 L 1018.695312 827.542969 C 1086.867188 815.515625 1153.183594 796.871094 1217.636719 771.605469 C 1258.675781 756.957031 1297.558594 737.894531 1334.28125 714.425781 C 1343.675781 708.410156 1352.570312 701.722656 1360.957031 694.363281 C 1369.34375 687.007812 1377.132812 679.058594 1384.316406 670.523438 C 1391.503906 661.988281 1398.011719 652.960938 1403.832031 643.445312 C 1409.65625 633.925781 1414.730469 624.023438 1419.058594 613.738281 Z M 1419.058594 613.738281 " fill-opacity="1" fill-rule="nonzero"/><g clip-path="url(#3df829a6c4)"><path fill="#000000" d="M 1482.601562 508.289062 C 1484.683594 512.707031 1486.53125 517.222656 1488.152344 521.828125 C 1489.773438 526.4375 1491.15625 531.113281 1492.300781 535.859375 C 1493.445312 540.609375 1494.34375 545.402344 1495 550.242188 C 1495.65625 555.082031 1496.0625 559.941406 1496.222656 564.824219 C 1496.382812 569.707031 1496.292969 574.582031 1495.957031 579.453125 C 1495.621094 584.328125 1495.035156 589.167969 1494.203125 593.980469 C 1493.375 598.796875 1492.300781 603.554688 1490.984375 608.257812 C 1489.667969 612.960938 1488.117188 617.582031 1486.328125 622.128906 C 1483.488281 630.8125 1480.011719 639.234375 1475.894531 647.394531 C 1471.777344 655.550781 1467.070312 663.351562 1461.769531 670.796875 C 1456.46875 678.238281 1450.640625 685.242188 1444.277344 691.800781 C 1437.917969 698.359375 1431.097656 704.402344 1423.820312 709.925781 C 1422.34375 710.859375 1420.960938 711.917969 1419.667969 713.09375 C 1417.203125 717.375 1415.421875 721.925781 1414.324219 726.742188 C 1413.222656 731.5625 1412.855469 736.433594 1413.21875 741.363281 C 1413.203125 751.613281 1411.648438 761.621094 1408.546875 771.394531 C 1403.308594 786.917969 1399.300781 802.753906 1396.527344 818.902344 C 1393.792969 832.242188 1390.972656 846.113281 1386.910156 859.625 L 1385.230469 865.09375 C 1381.773438 875.78125 1378.875 886.613281 1376.53125 897.601562 C 1374.769531 906.871094 1373.796875 916.320312 1372.804688 926.300781 L 1372.097656 933.546875 C 1368.203125 964.609375 1362.257812 995.269531 1354.261719 1025.535156 C 1351.027344 1039.292969 1346.53125 1052.625 1340.769531 1065.53125 C 1335.007812 1078.4375 1328.085938 1090.6875 1320 1102.28125 C 1296.25 1134.078125 1260.347656 1159.074219 1228.609375 1181.238281 C 1210.921875 1193.828125 1192.46875 1205.171875 1173.25 1215.273438 C 1154.035156 1225.371094 1134.226562 1234.136719 1113.828125 1241.5625 C 1074.429688 1254.285156 1034.28125 1263.851562 993.378906 1270.265625 C 927.382812 1284.34375 860.660156 1292.414062 793.210938 1294.464844 C 789.234375 1294.464844 785.355469 1294.378906 781.378906 1294.292969 C 689.601562 1293.617188 598.464844 1285.609375 507.972656 1270.265625 C 467.105469 1263.851562 426.992188 1254.285156 387.625 1241.5625 C 367.28125 1234.160156 347.523438 1225.425781 328.351562 1215.363281 C 309.179688 1205.300781 290.769531 1194 273.121094 1181.460938 C 240.980469 1159.085938 205.054688 1134.027344 181.441406 1102.230469 C 173.359375 1090.636719 166.433594 1078.386719 160.671875 1065.480469 C 154.910156 1052.574219 150.414062 1039.242188 147.179688 1025.484375 C 139.152344 995.238281 133.175781 964.59375 129.246094 933.546875 L 128.449219 926.300781 C 127.480469 916.355469 126.511719 906.871094 124.722656 897.601562 C 122.386719 886.613281 119.488281 875.777344 116.023438 865.09375 L 114.34375 859.625 C 110.28125 846.113281 107.460938 832.277344 104.726562 818.816406 C 101.902344 802.707031 97.898438 786.902344 92.710938 771.394531 C 89.609375 761.621094 88.050781 751.613281 88.035156 741.363281 C 88.398438 736.433594 88.027344 731.5625 86.929688 726.746094 C 85.828125 721.929688 84.046875 717.378906 81.585938 713.09375 C 80.503906 712.101562 79.355469 711.191406 78.144531 710.359375 C 70.78125 704.832031 63.878906 698.777344 57.441406 692.195312 C 51 685.613281 45.101562 678.578125 39.738281 671.09375 C 34.375 663.605469 29.613281 655.757812 25.453125 647.542969 C 21.289062 639.328125 17.777344 630.84375 14.914062 622.089844 C 13.125 617.546875 11.570312 612.921875 10.253906 608.21875 C 8.933594 603.515625 7.859375 598.757812 7.03125 593.941406 C 6.199219 589.128906 5.613281 584.285156 5.277344 579.414062 C 4.941406 574.539062 4.855469 569.660156 5.019531 564.78125 C 5.183594 559.898438 5.59375 555.035156 6.253906 550.195312 C 6.910156 545.355469 7.816406 540.5625 8.964844 535.816406 C 10.113281 531.066406 11.503906 526.390625 13.128906 521.785156 C 14.757812 517.179688 16.613281 512.667969 18.703125 508.253906 C 27.46875 487.460938 38.066406 467.644531 50.492188 448.8125 C 88.285156 393.171875 143.910156 355.980469 188.238281 329.753906 C 241.21875 298.402344 296.582031 280.738281 358.398438 262.539062 C 386.382812 254.238281 415.164062 248.40625 442.976562 242.851562 C 498.351562 230.710938 554.21875 221.59375 610.574219 215.503906 C 624.246094 214.1875 637.917969 214.261719 651.277344 214.1875 C 664.453125 214.445312 677.609375 214.03125 690.746094 212.941406 C 698.613281 212.234375 706.464844 211.089844 714.234375 209.949219 C 726.238281 208.269531 738.605469 206.492188 751.144531 205.96875 C 762.90625 205.691406 774.59375 206.519531 786.203125 208.457031 C 794.683594 209.796875 803.21875 210.59375 811.800781 210.84375 C 835.738281 211.015625 861.871094 212.609375 896.484375 216.050781 C 950.789062 222.265625 1004.640625 231.214844 1058.039062 242.902344 C 1086.039062 248.457031 1114.820312 254.285156 1142.808594 262.589844 C 1204.535156 280.789062 1259.988281 298.453125 1312.964844 329.800781 C 1357.207031 356.03125 1412.921875 393.195312 1450.625 448.859375 C 1463.148438 467.667969 1473.808594 487.476562 1482.601562 508.289062 Z M 1461.398438 613.304688 C 1462.90625 609.535156 1464.214844 605.703125 1465.324219 601.800781 C 1466.433594 597.898438 1467.339844 593.953125 1468.042969 589.957031 C 1468.746094 585.960938 1469.238281 581.941406 1469.523438 577.894531 C 1469.8125 573.847656 1469.890625 569.796875 1469.757812 565.746094 C 1469.625 561.691406 1469.285156 557.652344 1468.734375 553.632812 C 1468.183594 549.617188 1467.429688 545.636719 1466.46875 541.695312 C 1465.507812 537.753906 1464.347656 533.875 1462.984375 530.050781 C 1461.621094 526.230469 1460.066406 522.492188 1458.316406 518.832031 C 1450.179688 499.585938 1440.351562 481.246094 1428.828125 463.8125 C 1394.03125 412.5 1341.5 377.433594 1299.582031 352.613281 C 1249.25 322.851562 1195.476562 305.710938 1135.425781 287.972656 C 1108.582031 280.117188 1080.335938 274.375 1053.132812 268.90625 C 1001.136719 258.476562 947.496094 247.699219 894.058594 242.402344 C 860.246094 239.132812 834.804688 237.542969 811.675781 237.367188 C 801.996094 237.140625 792.371094 236.257812 782.808594 234.722656 C 772.746094 233.09375 762.617188 232.324219 752.421875 232.421875 C 741.125 232.957031 730.054688 234.546875 718.171875 236.226562 C 709.957031 237.46875 701.742188 238.613281 693.441406 239.40625 C 679.226562 240.726562 665.09375 240.726562 651.414062 240.726562 C 638.078125 240.8125 625.625 240.726562 613.097656 241.867188 C 557.746094 247.898438 502.882812 256.910156 448.507812 268.90625 C 421.042969 274.375 392.871094 280.09375 366.027344 287.972656 C 305.988281 305.722656 252.214844 322.867188 201.796875 352.613281 C 159.941406 377.472656 107.347656 412.5 72.550781 463.8125 C 60.980469 481.214844 51.132812 499.539062 43.011719 518.792969 C 41.261719 522.453125 39.707031 526.195312 38.347656 530.015625 C 36.984375 533.835938 35.824219 537.714844 34.863281 541.65625 C 33.902344 545.597656 33.144531 549.578125 32.59375 553.597656 C 32.046875 557.617188 31.703125 561.652344 31.570312 565.707031 C 31.4375 569.761719 31.515625 573.808594 31.800781 577.855469 C 32.085938 581.902344 32.578125 585.921875 33.28125 589.917969 C 33.980469 593.914062 34.886719 597.863281 35.996094 601.761719 C 37.105469 605.664062 38.410156 609.5 39.917969 613.265625 C 42.300781 620.679688 45.226562 627.867188 48.703125 634.835938 C 52.175781 641.804688 56.152344 648.46875 60.636719 654.835938 C 65.121094 661.199219 70.0625 667.1875 75.453125 672.804688 C 80.847656 678.417969 86.632812 683.597656 92.808594 688.332031 C 94.851562 689.734375 96.792969 691.265625 98.636719 692.921875 C 114.648438 702.578125 129.6875 713.5625 143.761719 725.875 C 202.828125 777.894531 260.667969 796.082031 333.777344 819.039062 C 410.453125 841.476562 488.421875 857.683594 567.6875 867.65625 C 597.972656 872.082031 633.207031 876.929688 667.902344 879.054688 C 673.199219 879.402344 678.765625 880.023438 684.320312 880.644531 C 692.148438 881.808594 700.019531 882.398438 707.933594 882.410156 L 717.550781 882.148438 C 789.847656 881.425781 861.871094 876.597656 933.617188 867.65625 C 1012.855469 857.703125 1090.792969 841.511719 1167.441406 819.078125 C 1240.636719 796.117188 1298.375 777.933594 1357.582031 725.910156 C 1371.617188 713.597656 1386.628906 702.613281 1402.605469 692.957031 C 1404.382812 691.378906 1406.234375 689.960938 1407.824219 688.804688 C 1414.082031 684.066406 1419.941406 678.875 1425.402344 673.238281 C 1430.863281 667.601562 1435.863281 661.582031 1440.402344 655.179688 C 1444.941406 648.773438 1448.96875 642.0625 1452.480469 635.042969 C 1455.992188 628.023438 1458.949219 620.777344 1461.351562 613.304688 Z M 1386.835938 740.09375 C 1387.007812 736.476562 1387.183594 732.773438 1387.53125 728.90625 C 1382.148438 733.058594 1376.769531 737.382812 1371.648438 741.894531 C 1309.125 796.914062 1249.4375 815.632812 1173.851562 839.398438 C 1096.109375 862.15625 1017.054688 878.613281 936.6875 888.761719 C 864.121094 897.828125 791.273438 902.71875 718.148438 903.429688 L 708.605469 903.691406 C 707.808594 903.691406 706.925781 903.777344 706.042969 903.777344 C 697.972656 903.605469 689.941406 902.960938 681.945312 901.839844 C 676.726562 901.21875 671.605469 900.59375 666.75 900.246094 C 631.167969 898.121094 595.5 893.1875 564.769531 888.761719 C 484.375 878.601562 405.289062 862.148438 327.515625 839.398438 C 252.015625 815.632812 192.328125 796.914062 129.804688 741.894531 C 124.683594 737.382812 119.304688 733.058594 113.824219 728.90625 C 114.269531 732.796875 114.445312 736.5 114.617188 740.09375 C 114.558594 747.667969 115.589844 755.085938 117.714844 762.355469 C 123.332031 779.136719 127.6875 796.242188 130.773438 813.667969 C 133.519531 827.09375 136.082031 839.773438 139.785156 852.003906 L 141.460938 857.386719 C 145.21875 868.964844 148.339844 880.710938 150.820312 892.628906 C 152.859375 903.042969 153.914062 913.558594 154.972656 923.628906 L 155.679688 930.777344 C 159.480469 960.65625 165.222656 990.15625 172.902344 1019.28125 C 175.75 1031.289062 179.675781 1042.9375 184.675781 1054.21875 C 189.675781 1065.503906 195.667969 1076.230469 202.65625 1086.40625 C 223.84375 1114.746094 257.933594 1138.515625 287.957031 1159.535156 C 304.679688 1171.417969 322.121094 1182.128906 340.285156 1191.667969 C 358.445312 1201.210938 377.164062 1209.492188 396.4375 1216.515625 C 434.476562 1228.753906 473.238281 1237.941406 512.722656 1244.074219 C 601.800781 1259.175781 691.515625 1267.050781 781.863281 1267.691406 C 851.085938 1269.195312 921.050781 1256.503906 988.570312 1244.074219 C 1028.082031 1237.941406 1066.875 1228.753906 1104.941406 1216.515625 C 1124.15625 1209.523438 1142.8125 1201.273438 1160.914062 1191.765625 C 1179.015625 1182.257812 1196.398438 1171.582031 1213.0625 1159.734375 C 1243.519531 1138.453125 1277.609375 1114.683594 1298.8125 1086.394531 C 1305.800781 1076.226562 1311.789062 1065.5 1316.777344 1054.21875 C 1321.765625 1042.933594 1325.664062 1031.28125 1328.476562 1019.269531 C 1336.238281 990.160156 1341.980469 960.660156 1345.699219 930.765625 L 1346.496094 923.617188 C 1347.464844 913.546875 1348.519531 903.03125 1350.546875 892.613281 C 1353.105469 880.710938 1356.257812 868.960938 1360.003906 857.375 L 1361.683594 851.992188 C 1365.410156 839.710938 1367.894531 827.132812 1370.679688 813.65625 C 1373.730469 796.21875 1378.089844 779.113281 1383.753906 762.34375 C 1385.847656 755.054688 1386.847656 747.617188 1386.75 740.03125 Z M 1386.835938 740.09375 " fill-opacity="1" fill-rule="nonzero"/></g><path fill="#000000" d="M 1423.382812 511.996094 C 1424.742188 516.117188 1425.910156 520.292969 1426.890625 524.519531 C 1427.871094 528.746094 1428.660156 533.007812 1429.253906 537.304688 C 1429.851562 541.605469 1430.25 545.921875 1430.457031 550.253906 C 1430.664062 554.589844 1430.675781 558.925781 1430.492188 563.261719 C 1430.308594 567.597656 1429.929688 571.914062 1429.355469 576.214844 C 1428.78125 580.515625 1428.015625 584.785156 1427.054688 589.015625 C 1426.097656 593.25 1424.949219 597.429688 1423.617188 601.558594 C 1422.28125 605.6875 1420.761719 609.746094 1419.058594 613.738281 C 1414.726562 624.027344 1409.644531 633.929688 1403.816406 643.449219 C 1397.988281 652.96875 1391.476562 661.996094 1384.285156 670.53125 C 1377.089844 679.066406 1369.296875 687.015625 1360.902344 694.371094 C 1352.507812 701.726562 1343.609375 708.414062 1334.203125 714.425781 C 1297.484375 737.894531 1258.601562 756.957031 1217.558594 771.605469 C 1153.105469 796.871094 1086.792969 815.515625 1018.621094 827.542969 L 924.855469 844.695312 C 913.546875 846.722656 901.800781 848.933594 889.972656 850.078125 C 875.988281 851.339844 861.980469 851.898438 847.941406 851.757812 C 813.503906 852.03125 785.429688 853.261719 759.46875 855.734375 L 754.175781 856.269531 C 748.074219 856.878906 741.984375 857.152344 735.71875 857.152344 C 721.144531 857.152344 706.316406 855.734375 691.738281 854.316406 C 678.230469 853.074219 665.429688 851.832031 653.214844 851.757812 C 639.542969 851.667969 625.316406 851.582031 611.183594 850.078125 C 599.355469 848.933594 587.695312 846.722656 576.386719 844.695312 L 482.609375 827.46875 C 414.4375 815.453125 348.128906 796.804688 283.683594 771.53125 C 242.613281 756.882812 203.703125 737.820312 166.949219 714.351562 C 157.550781 708.335938 148.660156 701.652344 140.273438 694.296875 C 131.882812 686.9375 124.097656 678.992188 116.910156 670.457031 C 109.726562 661.917969 103.222656 652.890625 97.398438 643.371094 C 91.578125 633.851562 86.507812 623.949219 82.183594 613.664062 C 80.476562 609.671875 78.953125 605.613281 77.613281 601.484375 C 76.273438 597.359375 75.125 593.179688 74.160156 588.945312 C 73.199219 584.714844 72.433594 580.445312 71.855469 576.144531 C 71.28125 571.84375 70.902344 567.523438 70.71875 563.1875 C 70.535156 558.851562 70.546875 554.515625 70.753906 550.179688 C 70.960938 545.84375 71.363281 541.527344 71.964844 537.230469 C 72.5625 532.929688 73.355469 528.667969 74.339844 524.441406 C 75.324219 520.214844 76.496094 516.039062 77.859375 511.921875 C 101.160156 454.601562 129.070312 418.121094 171.066406 389.953125 C 265.511719 326.71875 379.847656 299.597656 489.28125 279.730469 C 553.296875 266.703125 617.960938 259.695312 683.277344 258.710938 L 691.851562 258.800781 C 800.890625 259.507812 903.851562 260.117188 1011.835938 279.730469 C 1121.332031 299.621094 1235.679688 326.71875 1329.980469 389.953125 C 1372.171875 418.230469 1400.082031 454.679688 1423.382812 511.996094 Z M 1402.542969 607.386719 C 1404.058594 603.917969 1405.414062 600.390625 1406.609375 596.800781 C 1407.804688 593.207031 1408.835938 589.570312 1409.703125 585.886719 C 1410.566406 582.203125 1411.265625 578.488281 1411.792969 574.742188 C 1412.324219 570.996094 1412.683594 567.230469 1412.871094 563.453125 C 1413.058594 559.671875 1413.078125 555.890625 1412.921875 552.109375 C 1412.769531 548.328125 1412.445312 544.5625 1411.949219 540.8125 C 1411.457031 537.058594 1410.792969 533.339844 1409.960938 529.644531 C 1409.128906 525.953125 1408.128906 522.308594 1406.96875 518.707031 C 1385.15625 464.832031 1359.195312 430.738281 1320.25 404.683594 C 1228.597656 343.214844 1116.4375 316.726562 1008.742188 297.195312 C 902.335938 277.855469 800.082031 277.246094 691.839844 276.539062 L 683.277344 276.449219 L 679.300781 276.449219 C 616.433594 277.804688 554.183594 284.71875 492.550781 297.195312 C 399.753906 313.976562 303.652344 336.152344 220.152344 381.1875 C 219.953125 396.523438 221.011719 411.773438 223.320312 426.933594 C 225.632812 442.097656 229.164062 456.964844 233.921875 471.546875 C 239.839844 491.996094 244.300781 512.757812 247.308594 533.835938 C 252.359375 569.296875 259.511719 604.332031 268.769531 638.933594 C 277.597656 672.410156 284.574219 706.265625 289.699219 740.503906 C 303.996094 731.347656 318.828125 723.164062 334.199219 715.953125 C 340.136719 712.917969 345.84375 709.503906 351.324219 705.710938 C 360.144531 699.277344 369.707031 694.273438 380.019531 690.695312 C 403.246094 683.796875 426.648438 675.144531 449.339844 666.839844 C 485.644531 652.363281 522.875 640.910156 561.039062 632.484375 C 596.710938 625.972656 632.675781 622.707031 668.933594 622.6875 C 683.066406 622.515625 696.277344 621.269531 710.441406 620.039062 C 719.125 619.390625 727.777344 619.652344 736.40625 620.835938 C 745.457031 622.210938 754.519531 622.296875 763.597656 621.097656 C 773.382812 619.710938 783.152344 619.800781 792.914062 621.359375 C 798.214844 622.085938 803.542969 622.527344 808.894531 622.6875 L 810.484375 622.6875 C 854.007812 622.152344 897.242188 625.417969 940.191406 632.484375 C 978.359375 640.921875 1015.597656 652.375 1051.914062 666.839844 C 1074.519531 675.144531 1098.007812 683.796875 1121.234375 690.695312 C 1131.539062 694.289062 1141.101562 699.296875 1149.929688 705.710938 C 1155.398438 709.523438 1161.109375 712.9375 1167.054688 715.953125 C 1187.40625 725.3125 1206.65625 736.558594 1224.804688 749.691406 C 1259.804688 736.703125 1292.972656 720.066406 1324.3125 699.78125 C 1332.941406 694.234375 1341.109375 688.082031 1348.824219 681.320312 C 1356.535156 674.558594 1363.707031 667.261719 1370.332031 659.433594 C 1376.960938 651.605469 1382.976562 643.328125 1388.371094 634.605469 C 1393.769531 625.886719 1398.496094 616.8125 1402.542969 607.386719 Z M 1210.140625 755.496094 C 1194.613281 744.957031 1178.339844 735.742188 1161.3125 727.847656 C 1154.847656 724.59375 1148.632812 720.914062 1142.671875 716.8125 C 1134.945312 711.03125 1126.53125 706.558594 1117.417969 703.386719 C 1093.808594 696.3125 1070.195312 687.660156 1047.316406 679.269531 C 1011.667969 665.042969 975.113281 653.769531 937.644531 645.449219 C 895.46875 638.503906 853.011719 635.320312 810.273438 635.902344 L 808.683594 635.902344 C 802.46875 635.726562 796.953125 635.117188 791.46875 634.496094 C 782.953125 633.136719 774.421875 633.019531 765.871094 634.136719 C 755.589844 635.507812 745.316406 635.449219 735.050781 633.960938 C 727.515625 632.914062 719.949219 632.621094 712.355469 633.078125 C 697.34375 634.496094 683.773438 635.726562 669.171875 635.902344 C 633.714844 635.929688 598.546875 639.109375 563.664062 645.449219 C 526.179688 653.765625 489.609375 665.039062 453.953125 679.269531 C 431.085938 687.660156 407.421875 696.3125 383.761719 703.386719 C 374.6875 706.574219 366.296875 711.050781 358.597656 716.8125 C 352.621094 720.894531 346.40625 724.574219 339.953125 727.847656 C 322.914062 735.722656 306.636719 744.9375 291.113281 755.496094 C 354.21875 780.097656 419.121094 798.292969 485.816406 810.078125 L 579.59375 827.292969 C 590.542969 829.332031 601.964844 831.359375 613.0625 832.5 C 626.296875 833.917969 640.078125 834.003906 653.414062 834.09375 C 666.300781 834.179688 680.070312 835.507812 693.40625 836.753906 C 712.976562 839.277344 732.605469 839.921875 752.300781 838.691406 L 757.78125 838.15625 C 784.261719 835.671875 812.882812 834.429688 847.84375 834.09375 C 861.175781 834.003906 874.945312 833.917969 888.195312 832.5 C 899.316406 831.359375 910.625 829.332031 921.574219 827.292969 L 1015.4375 810.078125 C 1082.132812 798.28125 1147.03125 780.085938 1210.140625 755.496094 Z M 277.617188 748.882812 L 277.617188 748.792969 C 272.535156 712.792969 265.296875 677.226562 255.894531 642.105469 C 246.554688 606.96875 239.316406 571.40625 234.183594 535.414062 C 231.179688 514.953125 226.820312 494.789062 221.109375 474.914062 C 213.246094 449.371094 208.417969 423.269531 206.632812 396.601562 L 205.476562 396.515625 C 205.476562 395.894531 205.75 392.710938 206.097656 389.183594 C 197.621094 394.152344 189.148438 399.25 181.019531 404.71875 C 142.082031 430.824219 116.121094 464.871094 94.3125 518.746094 C 93.152344 522.34375 92.15625 525.992188 91.324219 529.683594 C 90.492188 533.371094 89.828125 537.09375 89.328125 540.84375 C 88.832031 544.59375 88.507812 548.359375 88.351562 552.140625 C 88.195312 555.921875 88.207031 559.699219 88.390625 563.476562 C 88.574219 567.257812 88.929688 571.019531 89.453125 574.765625 C 89.976562 578.515625 90.667969 582.230469 91.527344 585.914062 C 92.386719 589.597656 93.410156 593.238281 94.597656 596.828125 C 95.785156 600.421875 97.132812 603.953125 98.636719 607.421875 C 102.699219 616.84375 107.4375 625.910156 112.84375 634.628906 C 118.25 643.347656 124.269531 651.617188 130.902344 659.445312 C 137.535156 667.269531 144.707031 674.5625 152.421875 681.324219 C 160.136719 688.085938 168.304688 694.242188 176.929688 699.792969 C 208.269531 720.078125 241.4375 736.714844 276.4375 749.703125 C 276.824219 749.402344 277.269531 749.128906 277.617188 748.882812 Z M 277.617188 748.882812 " fill-opacity="1" fill-rule="nonzero"/></svg>