<svg xmlns="http://www.w3.org/2000/svg" xmlns:xlink="http://www.w3.org/1999/xlink" width="2000" zoomAndPan="magnify" viewBox="0 0 1500 1499.999933" height="2000" preserveAspectRatio="xMidYMid meet" version="1.0"><defs><clipPath id="ad6506a3b7"><path d="M 111 791 L 1389 791 L 1389 1227.5625 L 111 1227.5625 Z M 111 791 " clip-rule="nonzero"/></clipPath></defs><path fill="#000000" d="M 1484.132812 819.550781 L 15.867188 819.550781 C 8.324219 819.550781 2.269531 813.492188 2.269531 805.949219 C 2.269531 798.40625 8.324219 792.347656 15.867188 792.347656 L 1484.132812 792.347656 C 1491.675781 792.347656 1497.730469 798.40625 1497.730469 805.949219 C 1497.730469 813.492188 1491.675781 819.550781 1484.132812 819.550781 " fill-opacity="1" fill-rule="nonzero"/><g clip-path="url(#ad6506a3b7)"><path fill="#000000" d="M 1249.195312 1227.5625 L 250.804688 1227.5625 C 218.515625 1227.5625 190.476562 1204.292969 184.105469 1172.3125 L 111.347656 807.753906 C 109.863281 800.425781 114.640625 793.304688 121.972656 791.816406 C 129.191406 790.328125 136.523438 795.003906 137.902344 802.441406 L 210.761719 1166.996094 C 214.585938 1186.335938 231.476562 1200.363281 250.804688 1200.363281 L 1249.195312 1200.363281 C 1268.523438 1200.363281 1285.414062 1186.335938 1289.234375 1166.996094 L 1362.097656 802.125 C 1363.585938 794.792969 1370.808594 790.011719 1378.027344 791.5 C 1385.359375 792.984375 1390.136719 800.105469 1388.648438 807.542969 L 1315.894531 1172.3125 C 1309.523438 1204.292969 1281.484375 1227.5625 1249.195312 1227.5625 " fill-opacity="1" fill-rule="nonzero"/></g><path fill="#000000" d="M 1185.042969 1118.757812 C 1177.5 1118.757812 1171.449219 1112.703125 1171.449219 1105.160156 L 1171.449219 914.753906 C 1171.449219 907.207031 1177.5 901.152344 1185.042969 901.152344 C 1192.582031 901.152344 1198.636719 907.207031 1198.636719 914.753906 L 1198.636719 1105.160156 C 1198.636719 1112.703125 1192.582031 1118.757812 1185.042969 1118.757812 " fill-opacity="1" fill-rule="nonzero"/><path fill="#000000" d="M 1076.28125 1118.757812 C 1068.742188 1118.757812 1062.6875 1112.703125 1062.6875 1105.160156 L 1062.6875 914.753906 C 1062.6875 907.207031 1068.742188 901.152344 1076.28125 901.152344 C 1083.824219 901.152344 1089.878906 907.207031 1089.878906 914.753906 L 1089.878906 1105.160156 C 1089.878906 1112.703125 1083.824219 1118.757812 1076.28125 1118.757812 " fill-opacity="1" fill-rule="nonzero"/><path fill="#000000" d="M 967.519531 1118.757812 C 959.980469 1118.757812 953.925781 1112.703125 953.925781 1105.160156 L 953.925781 914.753906 C 953.925781 907.207031 959.980469 901.152344 967.519531 901.152344 C 975.0625 901.152344 981.117188 907.207031 981.117188 914.753906 L 981.117188 1105.160156 C 981.117188 1112.703125 975.0625 1118.757812 967.519531 1118.757812 " fill-opacity="1" fill-rule="nonzero"/><path fill="#000000" d="M 858.761719 1118.757812 C 851.21875 1118.757812 845.164062 1112.703125 845.164062 1105.160156 L 845.164062 914.753906 C 845.164062 907.207031 851.21875 901.152344 858.761719 901.152344 C 866.300781 901.152344 872.355469 907.207031 872.355469 914.753906 L 872.355469 1105.160156 C 872.355469 1112.703125 866.300781 1118.757812 858.761719 1118.757812 " fill-opacity="1" fill-rule="nonzero"/><path fill="#000000" d="M 750 1118.757812 C 742.457031 1118.757812 736.40625 1112.703125 736.40625 1105.160156 L 736.40625 914.753906 C 736.40625 907.207031 742.457031 901.152344 750 901.152344 C 757.539062 901.152344 763.59375 907.207031 763.59375 914.753906 L 763.59375 1105.160156 C 763.59375 1112.703125 757.539062 1118.757812 750 1118.757812 " fill-opacity="1" fill-rule="nonzero"/><path fill="#000000" d="M 641.238281 1118.757812 C 633.699219 1118.757812 627.644531 1112.703125 627.644531 1105.160156 L 627.644531 914.753906 C 627.644531 907.207031 633.699219 901.152344 641.238281 901.152344 C 648.78125 901.152344 654.835938 907.207031 654.835938 914.753906 L 654.835938 1105.160156 C 654.835938 1112.703125 648.78125 1118.757812 641.238281 1118.757812 " fill-opacity="1" fill-rule="nonzero"/><path fill="#000000" d="M 532.480469 1118.757812 C 524.9375 1118.757812 518.882812 1112.703125 518.882812 1105.160156 L 518.882812 914.753906 C 518.882812 907.207031 524.9375 901.152344 532.480469 901.152344 C 540.019531 901.152344 546.074219 907.207031 546.074219 914.753906 L 546.074219 1105.160156 C 546.074219 1112.703125 540.019531 1118.757812 532.480469 1118.757812 " fill-opacity="1" fill-rule="nonzero"/><path fill="#000000" d="M 423.71875 1118.757812 C 416.175781 1118.757812 410.121094 1112.703125 410.121094 1105.160156 L 410.121094 914.753906 C 410.121094 907.207031 416.175781 901.152344 423.71875 901.152344 C 431.257812 901.152344 437.3125 907.207031 437.3125 914.753906 L 437.3125 1105.160156 C 437.3125 1112.703125 431.257812 1118.757812 423.71875 1118.757812 " fill-opacity="1" fill-rule="nonzero"/><path fill="#000000" d="M 314.957031 1118.757812 C 307.417969 1118.757812 301.363281 1112.703125 301.363281 1105.160156 L 301.363281 914.753906 C 301.363281 907.207031 307.417969 901.152344 314.957031 901.152344 C 322.5 901.152344 328.550781 907.207031 328.550781 914.753906 L 328.550781 1105.160156 C 328.550781 1112.703125 322.5 1118.757812 314.957031 1118.757812 " fill-opacity="1" fill-rule="nonzero"/><path fill="#000000" d="M 15.867188 818.488281 C 9.492188 818.488281 3.757812 813.917969 2.589844 807.542969 C 1.101562 800.105469 5.882812 792.984375 13.210938 791.5 L 1453.226562 504.933594 C 1460.449219 503.445312 1467.777344 508.226562 1469.265625 515.664062 C 1470.75 522.996094 1465.972656 530.117188 1458.539062 531.601562 L 18.519531 818.167969 C 17.566406 818.378906 16.714844 818.488281 15.867188 818.488281 " fill-opacity="1" fill-rule="nonzero"/><path fill="#000000" d="M 124.625 792.347656 C 117.085938 792.347656 111.03125 786.292969 111.03125 778.75 L 111.03125 550.835938 C 111.03125 517.578125 132.804688 490.058594 163.925781 483.894531 L 1196.40625 278.082031 C 1228.378906 271.707031 1260.242188 288.601562 1272.5625 318.140625 L 1361.777344 531.816406 C 1364.644531 538.722656 1361.355469 546.691406 1354.449219 549.667969 C 1347.652344 552.535156 1339.582031 549.242188 1336.710938 542.335938 L 1247.390625 328.554688 C 1239.953125 310.703125 1221.367188 300.925781 1201.71875 304.753906 L 169.234375 510.566406 C 150.964844 514.175781 138.222656 530.753906 138.222656 550.835938 L 138.222656 778.75 C 138.222656 786.292969 132.167969 792.347656 124.625 792.347656 " fill-opacity="1" fill-rule="nonzero"/><path fill="#000000" d="M 1199.914062 499.621094 C 1193.644531 499.621094 1187.910156 495.160156 1186.636719 488.675781 L 1165.5 382 C 1164.011719 374.5625 1168.792969 367.441406 1176.121094 365.953125 C 1183.34375 364.464844 1190.671875 369.246094 1192.160156 376.6875 L 1213.296875 483.363281 C 1214.78125 490.695312 1210.003906 497.921875 1202.671875 499.300781 C 1201.71875 499.515625 1200.867188 499.621094 1199.914062 499.621094 " fill-opacity="1" fill-rule="nonzero"/><path fill="#000000" d="M 1093.277344 520.871094 C 1087.007812 520.871094 1081.273438 516.410156 1080 509.925781 L 1058.757812 403.25 C 1057.269531 395.8125 1062.050781 388.691406 1069.484375 387.203125 C 1076.707031 385.71875 1083.929688 390.5 1085.417969 397.832031 L 1106.660156 504.613281 C 1108.144531 511.945312 1103.367188 519.171875 1095.929688 520.554688 C 1095.082031 520.765625 1094.230469 520.871094 1093.277344 520.871094 " fill-opacity="1" fill-rule="nonzero"/><path fill="#000000" d="M 986.640625 542.015625 C 980.265625 542.015625 974.636719 537.554688 973.363281 531.179688 L 952.121094 424.394531 C 950.632812 417.0625 955.414062 409.941406 962.847656 408.457031 C 969.964844 406.96875 977.292969 411.75 978.78125 419.082031 L 1000.023438 525.867188 C 1001.402344 533.195312 996.730469 540.316406 989.292969 541.804688 C 988.445312 542.015625 987.488281 542.015625 986.640625 542.015625 " fill-opacity="1" fill-rule="nonzero"/><path fill="#000000" d="M 880.003906 563.265625 C 873.628906 563.265625 867.894531 558.804688 866.621094 552.324219 L 845.484375 445.644531 C 843.996094 438.3125 848.777344 431.085938 856.105469 429.601562 C 863.328125 428.113281 870.65625 432.894531 872.035156 440.332031 L 893.28125 547.011719 C 894.765625 554.449219 889.988281 561.566406 882.660156 563.054688 C 881.703125 563.265625 880.851562 563.265625 880.003906 563.265625 " fill-opacity="1" fill-rule="nonzero"/><path fill="#000000" d="M 773.261719 584.515625 C 766.886719 584.515625 761.257812 580.054688 759.984375 573.574219 L 738.742188 466.894531 C 737.253906 459.457031 742.140625 452.339844 749.46875 450.851562 C 756.691406 449.363281 764.019531 454.144531 765.402344 461.582031 L 786.644531 568.261719 C 788.128906 575.59375 783.351562 582.816406 776.023438 584.199219 C 775.066406 584.410156 774.214844 584.515625 773.261719 584.515625 " fill-opacity="1" fill-rule="nonzero"/><path fill="#000000" d="M 666.625 605.769531 C 660.25 605.769531 654.621094 601.304688 653.347656 594.824219 L 632.105469 488.144531 C 630.617188 480.707031 635.398438 473.589844 642.726562 472.101562 C 649.949219 470.613281 657.277344 475.394531 658.765625 482.832031 L 680.007812 589.511719 C 681.386719 596.84375 676.609375 604.066406 669.277344 605.449219 C 668.429688 605.660156 667.578125 605.769531 666.625 605.769531 " fill-opacity="1" fill-rule="nonzero"/><path fill="#000000" d="M 559.988281 627.019531 C 553.613281 627.019531 547.878906 622.554688 546.605469 616.074219 L 525.363281 509.289062 C 523.980469 501.957031 528.761719 494.839844 536.089844 493.351562 C 543.417969 491.863281 550.640625 496.644531 552.023438 503.976562 L 573.265625 610.761719 C 574.75 618.09375 569.972656 625.210938 562.644531 626.699219 C 561.6875 626.914062 560.835938 627.019531 559.988281 627.019531 " fill-opacity="1" fill-rule="nonzero"/><path fill="#000000" d="M 453.246094 648.164062 C 446.871094 648.164062 441.242188 643.699219 439.96875 637.21875 L 418.726562 530.539062 C 417.34375 523.210938 422.125 515.984375 429.453125 514.601562 C 436.675781 513.007812 443.898438 517.894531 445.386719 525.226562 L 466.628906 631.90625 C 468.113281 639.34375 463.335938 646.464844 455.898438 647.949219 C 455.050781 648.164062 454.199219 648.164062 453.246094 648.164062 " fill-opacity="1" fill-rule="nonzero"/><path fill="#000000" d="M 346.609375 669.414062 C 340.234375 669.414062 334.605469 664.949219 333.332031 658.46875 L 312.089844 551.792969 C 310.601562 544.460938 315.382812 537.234375 322.710938 535.746094 C 329.933594 534.257812 337.261719 539.039062 338.75 546.480469 L 359.992188 653.15625 C 361.476562 660.59375 356.59375 667.714844 349.261719 669.199219 C 348.414062 669.308594 347.5625 669.414062 346.609375 669.414062 " fill-opacity="1" fill-rule="nonzero"/><path fill="#000000" d="M 239.972656 690.664062 C 233.597656 690.664062 227.863281 686.203125 226.695312 679.71875 L 205.453125 573.042969 C 203.964844 565.605469 208.746094 558.484375 216.074219 556.996094 C 223.402344 555.511719 230.625 560.292969 232.113281 567.730469 L 253.25 674.40625 C 254.734375 681.738281 249.957031 688.964844 242.628906 690.34375 C 241.671875 690.558594 240.820312 690.664062 239.972656 690.664062 " fill-opacity="1" fill-rule="nonzero"/></svg>