<svg xmlns="http://www.w3.org/2000/svg" xmlns:xlink="http://www.w3.org/1999/xlink" width="2000" zoomAndPan="magnify" viewBox="0 0 1500 1499.999933" height="2000" preserveAspectRatio="xMidYMid meet" version="1.0"><defs><clipPath id="c3896ffd3d"><path d="M 0 303.351562 L 1500 303.351562 L 1500 1316.601562 L 0 1316.601562 Z M 0 303.351562 " clip-rule="nonzero"/></clipPath></defs><g clip-path="url(#c3896ffd3d)"><path fill="#212121" d="M 104.21875 741.785156 L 68.183594 741.785156 C 30.535156 741.785156 0 772.339844 0 809.976562 C 0 847.46875 30.339844 877.929688 67.742188 878.167969 C 67.839844 878.167969 68.183594 878.167969 68.183594 878.167969 L 104.21875 878.167969 L 255.339844 1218.191406 C 281.882812 1277.992188 341.203125 1316.535156 406.65625 1316.535156 C 575.210938 1316.535156 924.789062 1316.535156 1093.34375 1316.535156 C 1158.796875 1316.535156 1218.117188 1277.992188 1244.660156 1218.191406 L 1395.78125 878.167969 L 1431.816406 878.167969 C 1469.464844 878.167969 1500 847.613281 1500 809.976562 C 1500 772.488281 1469.707031 742.023438 1432.257812 741.785156 L 1432.257812 741.796875 L 1431.816406 741.785156 L 1395.78125 741.785156 L 1244.660156 401.765625 C 1218.117188 341.960938 1158.796875 303.417969 1093.34375 303.417969 C 924.789062 303.417969 575.210938 303.417969 406.65625 303.417969 C 341.203125 303.417969 281.882812 341.960938 255.339844 401.765625 Z M 311.6875 741.785156 L 1353.164062 741.785156 C 1353.164062 741.785156 1209.058594 417.589844 1209.058594 417.589844 C 1188.75 371.859375 1143.410156 342.386719 1093.34375 342.386719 C 924.789062 342.386719 575.210938 342.386719 406.65625 342.386719 C 356.589844 342.386719 311.25 371.859375 290.941406 417.589844 L 146.835938 741.785156 L 238.636719 741.785156 C 246.964844 741.785156 254.074219 747.007812 256.851562 754.347656 C 256.851562 754.347656 256.851562 754.351562 256.851562 754.351562 C 256.996094 754.683594 257.09375 755.023438 257.191406 755.367188 C 257.191406 755.367188 257.191406 755.371094 257.191406 755.371094 C 257.289062 755.5625 257.335938 755.746094 257.386719 755.9375 L 257.433594 756.179688 C 257.484375 756.292969 257.484375 756.410156 257.53125 756.519531 L 257.582031 756.652344 L 257.582031 756.792969 L 257.628906 756.988281 L 257.679688 757.148438 L 257.726562 757.34375 L 257.726562 757.464844 L 257.777344 757.625 L 257.824219 757.820312 L 257.824219 757.941406 L 257.875 758.066406 L 257.875 758.304688 L 257.921875 758.425781 L 257.921875 758.546875 L 257.96875 758.667969 L 257.96875 759.035156 L 258.019531 759.15625 L 258.019531 759.527344 L 258.066406 759.699219 L 258.066406 760.070312 L 258.117188 760.265625 L 258.117188 762.203125 L 258.066406 762.394531 L 258.066406 762.941406 L 258.019531 763.140625 L 258.019531 763.320312 L 257.96875 763.53125 L 257.96875 763.769531 L 257.921875 763.898438 C 256.65625 773.414062 248.523438 780.753906 238.636719 780.753906 L 68.183594 780.753906 C 52.0625 780.753906 38.960938 793.851562 38.960938 809.976562 C 38.960938 826.011719 51.914062 839.050781 67.890625 839.203125 L 67.988281 839.207031 L 68.183594 839.203125 L 579.738281 839.203125 L 579.886719 839.207031 L 580.082031 839.207031 L 580.226562 839.210938 L 580.421875 839.222656 L 580.566406 839.230469 L 580.761719 839.242188 L 580.910156 839.25 L 581.101562 839.265625 L 581.25 839.28125 L 581.445312 839.292969 L 581.589844 839.308594 L 581.785156 839.328125 L 581.933594 839.347656 L 582.125 839.371094 L 582.273438 839.390625 L 582.46875 839.414062 L 582.613281 839.445312 L 582.757812 839.46875 L 582.953125 839.5 L 583.101562 839.53125 L 583.296875 839.5625 L 583.441406 839.597656 L 583.636719 839.628906 L 583.78125 839.664062 L 583.929688 839.703125 L 584.121094 839.742188 L 584.269531 839.78125 L 584.414062 839.824219 L 584.609375 839.863281 L 584.753906 839.914062 L 584.902344 839.957031 L 585.097656 840.003906 L 585.242188 840.054688 L 585.390625 840.101562 L 585.585938 840.152344 L 585.730469 840.203125 L 585.875 840.257812 L 586.023438 840.3125 L 586.21875 840.371094 L 586.363281 840.429688 L 586.511719 840.488281 L 586.65625 840.546875 L 586.800781 840.609375 L 586.996094 840.671875 L 587.144531 840.734375 L 587.289062 840.804688 L 587.433594 840.867188 L 587.582031 840.9375 L 587.726562 841.007812 L 587.875 841.078125 L 588.019531 841.148438 L 588.164062 841.222656 L 588.359375 841.296875 L 588.507812 841.375 L 588.796875 841.53125 L 588.945312 841.609375 L 589.089844 841.691406 L 589.238281 841.773438 L 589.382812 841.855469 L 589.480469 841.9375 L 589.625 842.027344 L 589.773438 842.109375 L 589.917969 842.195312 L 590.066406 842.289062 L 590.355469 842.46875 L 590.503906 842.5625 L 590.648438 842.660156 L 590.746094 842.753906 L 590.894531 842.851562 L 591.039062 842.945312 L 591.183594 843.042969 L 591.28125 843.148438 L 591.429688 843.25 L 591.574219 843.351562 L 591.671875 843.453125 L 591.816406 843.554688 L 591.964844 843.664062 L 592.0625 843.769531 L 592.207031 843.878906 L 592.355469 843.984375 L 592.449219 844.097656 L 592.597656 844.207031 L 592.695312 844.320312 L 592.839844 844.433594 L 592.9375 844.550781 L 593.085938 844.667969 L 593.183594 844.785156 L 593.328125 844.898438 L 593.425781 845.015625 L 593.570312 845.140625 L 593.765625 845.382812 L 593.914062 845.503906 L 594.007812 845.625 L 594.105469 845.753906 L 594.253906 845.878906 L 594.351562 846.003906 L 594.449219 846.136719 L 594.644531 846.394531 L 594.789062 846.527344 L 594.886719 846.660156 L 594.984375 846.789062 L 595.375 847.335938 L 595.46875 847.472656 L 595.761719 847.894531 L 595.859375 848.039062 L 595.957031 848.179688 L 596.152344 848.46875 L 596.199219 848.617188 L 596.296875 848.761719 L 596.492188 849.058594 L 596.589844 849.210938 L 596.640625 849.363281 L 596.738281 849.511719 L 596.835938 849.664062 L 596.882812 849.816406 C 596.929688 849.867188 596.929688 849.921875 596.980469 849.972656 L 638.960938 933.921875 C 639.789062 935.574219 641.445312 936.617188 643.296875 936.617188 L 856.703125 936.617188 C 858.554688 936.617188 860.257812 935.574219 861.039062 933.921875 C 874.429688 907.191406 903.019531 849.972656 903.019531 849.972656 L 903.117188 849.816406 L 903.164062 849.664062 L 903.261719 849.511719 L 903.359375 849.363281 L 903.457031 849.210938 L 903.507812 849.058594 L 903.703125 848.761719 L 903.800781 848.617188 L 903.847656 848.46875 L 904.042969 848.179688 L 904.140625 848.039062 L 904.238281 847.894531 L 904.332031 847.753906 L 904.527344 847.472656 L 905.015625 846.789062 L 905.113281 846.660156 L 905.210938 846.527344 L 905.355469 846.394531 L 905.550781 846.136719 L 905.648438 846.003906 L 905.796875 845.878906 L 905.894531 845.753906 L 905.988281 845.625 L 906.085938 845.503906 L 906.234375 845.382812 L 906.429688 845.140625 L 906.574219 845.015625 L 906.671875 844.898438 L 906.816406 844.785156 L 906.914062 844.667969 L 907.0625 844.550781 L 907.160156 844.433594 L 907.304688 844.320312 L 907.402344 844.207031 L 907.550781 844.097656 L 907.644531 843.984375 L 907.792969 843.878906 L 907.9375 843.769531 L 908.035156 843.664062 L 908.179688 843.554688 L 908.328125 843.453125 L 908.425781 843.351562 L 908.570312 843.25 L 908.71875 843.148438 L 908.816406 843.042969 L 908.960938 842.945312 L 909.105469 842.851562 L 909.253906 842.753906 L 909.351562 842.660156 L 909.496094 842.5625 L 909.644531 842.46875 L 909.933594 842.289062 L 910.082031 842.195312 L 910.226562 842.109375 L 910.371094 842.027344 L 910.519531 841.9375 L 910.664062 841.855469 L 910.761719 841.773438 L 910.910156 841.691406 L 911.054688 841.609375 L 911.203125 841.53125 L 911.492188 841.375 L 911.6875 841.296875 L 911.835938 841.222656 L 911.980469 841.148438 L 912.125 841.078125 L 912.273438 841.007812 L 912.5625 840.867188 L 912.710938 840.804688 L 912.855469 840.734375 L 913.003906 840.671875 L 913.199219 840.609375 L 913.34375 840.546875 L 913.492188 840.488281 L 913.636719 840.429688 L 913.832031 840.371094 L 913.976562 840.3125 L 914.125 840.257812 L 914.269531 840.203125 L 914.414062 840.152344 L 914.609375 840.101562 L 914.757812 840.054688 L 914.902344 840.003906 L 915.097656 839.957031 L 915.242188 839.914062 L 915.390625 839.863281 L 915.585938 839.824219 L 915.730469 839.78125 L 915.875 839.742188 L 916.070312 839.703125 L 916.21875 839.664062 L 916.363281 839.628906 L 916.558594 839.597656 L 916.703125 839.5625 L 916.898438 839.53125 L 917.046875 839.5 L 917.242188 839.46875 L 917.386719 839.445312 L 917.582031 839.414062 L 917.726562 839.390625 L 917.875 839.371094 L 918.066406 839.347656 L 918.214844 839.328125 L 918.410156 839.308594 L 918.554688 839.292969 L 918.75 839.28125 L 918.894531 839.265625 L 919.089844 839.25 L 919.238281 839.242188 L 919.429688 839.230469 L 919.578125 839.222656 L 919.773438 839.210938 L 919.917969 839.207031 L 920.113281 839.207031 L 920.308594 839.203125 L 920.453125 839.203125 C 920.453125 839.203125 1056.523438 839.203125 1188.3125 839.203125 C 1190.355469 839.203125 1192.355469 839.523438 1194.203125 840.113281 C 1194.203125 840.113281 1194.253906 840.117188 1194.253906 840.117188 C 1194.398438 840.175781 1194.59375 840.238281 1194.789062 840.300781 L 1195.03125 840.386719 L 1195.128906 840.429688 C 1195.375 840.527344 1195.617188 840.628906 1195.910156 840.734375 L 1196.105469 840.832031 L 1196.25 840.882812 L 1196.347656 840.925781 L 1196.445312 840.980469 L 1196.542969 841.03125 L 1196.640625 841.078125 L 1196.785156 841.128906 C 1196.882812 841.199219 1197.027344 841.265625 1197.175781 841.335938 L 1197.273438 841.394531 L 1197.417969 841.445312 L 1197.808594 841.679688 L 1197.90625 841.734375 L 1198.003906 841.796875 L 1198.148438 841.855469 L 1198.246094 841.914062 L 1198.34375 841.976562 L 1198.734375 842.210938 L 1198.832031 842.289062 L 1199.027344 842.402344 L 1199.125 842.488281 L 1199.316406 842.609375 L 1199.414062 842.679688 C 1199.511719 842.742188 1199.609375 842.800781 1199.660156 842.863281 L 1199.804688 842.945312 L 1199.902344 843.011719 L 1199.949219 843.078125 L 1200.046875 843.15625 L 1200.242188 843.296875 L 1200.339844 843.371094 C 1200.390625 843.414062 1200.4375 843.457031 1200.535156 843.507812 C 1200.679688 843.628906 1200.828125 843.75 1200.972656 843.878906 L 1201.070312 843.957031 L 1201.167969 844.046875 L 1201.265625 844.121094 L 1201.410156 844.273438 C 1201.558594 844.429688 1201.753906 844.582031 1201.898438 844.746094 L 1201.996094 844.832031 C 1202.386719 845.210938 1202.777344 845.613281 1203.117188 846.027344 L 1203.214844 846.121094 L 1203.261719 846.210938 C 1203.554688 846.566406 1203.847656 846.9375 1204.140625 847.316406 L 1204.1875 847.421875 L 1204.335938 847.613281 L 1204.382812 847.699219 C 1204.480469 847.832031 1204.578125 847.960938 1204.675781 848.085938 C 1204.675781 848.085938 1204.675781 848.089844 1204.675781 848.089844 C 1204.773438 848.257812 1204.871094 848.417969 1204.96875 848.585938 C 1204.96875 848.585938 1204.96875 848.59375 1204.96875 848.59375 C 1205.0625 848.722656 1205.113281 848.855469 1205.210938 848.992188 C 1205.210938 848.992188 1205.210938 849.007812 1205.210938 849.007812 C 1205.257812 849.105469 1205.308594 849.199219 1205.40625 849.296875 C 1205.40625 849.296875 1205.40625 849.308594 1205.40625 849.308594 C 1205.550781 849.582031 1205.699219 849.859375 1205.84375 850.136719 L 1205.894531 850.242188 L 1205.941406 850.355469 C 1205.988281 850.460938 1206.039062 850.566406 1206.085938 850.667969 L 1206.136719 850.792969 L 1206.183594 850.890625 L 1206.234375 851.011719 L 1206.28125 851.121094 L 1206.332031 851.238281 L 1206.332031 851.324219 C 1206.378906 851.398438 1206.429688 851.472656 1206.429688 851.542969 L 1206.476562 851.679688 L 1206.527344 851.761719 L 1206.574219 851.894531 L 1206.625 852.007812 C 1206.625 852.074219 1206.671875 852.144531 1206.671875 852.210938 L 1206.71875 852.355469 L 1206.816406 852.550781 L 1206.867188 852.78125 L 1206.914062 852.933594 L 1206.964844 853.023438 L 1207.011719 853.164062 L 1207.0625 853.351562 L 1207.109375 853.5 L 1207.160156 853.703125 L 1207.207031 853.9375 L 1207.253906 854.105469 L 1207.304688 854.285156 L 1207.351562 854.4375 L 1207.351562 854.671875 L 1207.402344 854.878906 L 1207.449219 855.023438 L 1207.5 855.234375 L 1207.5 855.40625 L 1207.546875 855.597656 L 1207.546875 855.761719 L 1207.597656 855.984375 C 1207.597656 856.058594 1207.644531 856.132812 1207.644531 856.207031 L 1207.644531 856.492188 L 1207.695312 856.691406 L 1207.695312 856.871094 L 1207.742188 857.0625 L 1207.742188 857.71875 L 1207.792969 857.828125 L 1207.792969 859.5625 L 1207.742188 859.71875 L 1207.742188 860.097656 C 1207.742188 860.164062 1207.742188 860.238281 1207.742188 860.304688 L 1207.695312 860.441406 L 1207.695312 860.554688 C 1206.769531 870.433594 1198.441406 878.167969 1188.3125 878.167969 L 932.484375 878.167969 C 932.484375 878.167969 895.910156 951.351562 895.910156 951.351562 C 888.457031 966.203125 873.3125 975.582031 856.703125 975.582031 L 643.296875 975.582031 C 626.6875 975.582031 611.542969 966.203125 604.089844 951.351562 C 604.089844 951.351562 567.515625 878.167969 567.515625 878.167969 C 567.515625 878.167969 146.835938 878.167969 146.835938 878.167969 C 146.835938 878.167969 290.941406 1202.363281 290.941406 1202.363281 C 311.25 1248.097656 356.589844 1277.570312 406.65625 1277.570312 C 575.210938 1277.570312 924.789062 1277.570312 1093.34375 1277.570312 C 1143.410156 1277.570312 1188.75 1248.097656 1209.058594 1202.363281 C 1209.058594 1202.363281 1353.164062 878.167969 1353.164062 878.167969 L 1261.21875 878.167969 L 1260.972656 878.164062 L 1260.828125 878.15625 L 1260.683594 878.15625 L 1260.585938 878.152344 L 1260.4375 878.148438 L 1260.339844 878.136719 L 1260.195312 878.132812 L 1260.097656 878.128906 L 1259.949219 878.117188 L 1259.851562 878.109375 L 1259.707031 878.097656 L 1259.609375 878.089844 L 1259.464844 878.074219 L 1259.367188 878.066406 L 1259.222656 878.050781 L 1259.125 878.035156 L 1258.976562 878.019531 L 1258.878906 878.007812 L 1258.734375 877.992188 L 1258.585938 877.972656 L 1258.488281 877.957031 L 1258.390625 877.9375 L 1258.246094 877.917969 L 1258.148438 877.898438 L 1258.003906 877.878906 L 1257.90625 877.855469 L 1257.757812 877.835938 L 1257.664062 877.8125 L 1257.515625 877.792969 L 1257.417969 877.761719 L 1257.222656 877.71875 L 1257.078125 877.691406 L 1256.835938 877.640625 L 1256.6875 877.601562 L 1256.492188 877.554688 L 1256.347656 877.515625 L 1256.152344 877.460938 L 1256.003906 877.417969 L 1255.8125 877.359375 L 1255.664062 877.316406 L 1255.46875 877.257812 L 1255.324219 877.203125 L 1255.128906 877.144531 L 1254.933594 877.089844 L 1254.789062 877.023438 L 1254.644531 876.96875 L 1254.449219 876.902344 L 1254.300781 876.835938 L 1254.105469 876.769531 L 1253.914062 876.683594 L 1253.667969 876.589844 L 1253.472656 876.492188 L 1253.230469 876.394531 L 1253.035156 876.296875 L 1252.792969 876.195312 L 1252.597656 876.085938 L 1252.402344 875.980469 L 1252.207031 875.867188 L 1251.964844 875.757812 L 1251.769531 875.644531 L 1251.574219 875.527344 L 1251.183594 875.285156 L 1250.992188 875.15625 L 1250.746094 875.03125 L 1250.355469 874.773438 L 1250.164062 874.636719 L 1250.015625 874.503906 L 1249.429688 874.082031 L 1249.238281 873.933594 L 1249.042969 873.789062 L 1248.894531 873.640625 L 1248.699219 873.492188 L 1248.554688 873.335938 L 1248.359375 873.179688 L 1248.214844 873.074219 L 1248.117188 872.945312 L 1247.96875 872.835938 L 1247.824219 872.703125 L 1247.726562 872.589844 L 1247.582031 872.460938 L 1247.484375 872.34375 L 1247.339844 872.210938 L 1247.191406 872.039062 L 1247.046875 871.871094 L 1246.898438 871.746094 L 1246.800781 871.605469 L 1246.703125 871.484375 L 1246.558594 871.34375 L 1246.460938 871.222656 L 1246.3125 871.074219 L 1246.21875 870.949219 L 1246.121094 870.804688 L 1246.023438 870.679688 L 1245.875 870.527344 L 1245.777344 870.402344 L 1245.679688 870.242188 L 1245.585938 870.125 L 1245.488281 869.960938 L 1245.390625 869.832031 L 1245.292969 869.671875 L 1245.195312 869.550781 L 1245.046875 869.355469 L 1245 869.265625 L 1244.949219 869.160156 L 1244.902344 869.074219 L 1244.804688 868.960938 L 1244.757812 868.871094 L 1244.707031 868.765625 L 1244.660156 868.667969 L 1244.5625 868.574219 L 1244.511719 868.464844 L 1244.464844 868.367188 L 1244.414062 868.253906 L 1244.316406 868.152344 L 1244.269531 868.046875 L 1244.21875 867.945312 L 1244.171875 867.835938 L 1244.074219 867.65625 L 1243.976562 867.515625 L 1243.929688 867.339844 L 1243.832031 867.214844 L 1243.78125 867.105469 L 1243.734375 866.992188 L 1243.636719 866.808594 L 1243.589844 866.65625 L 1243.492188 866.484375 L 1243.441406 866.328125 L 1243.34375 866.15625 L 1243.296875 866.011719 L 1243.246094 865.824219 L 1243.199219 865.679688 L 1243.101562 865.492188 L 1243.050781 865.332031 L 1243.003906 865.15625 L 1242.90625 864.929688 L 1242.855469 864.703125 L 1242.757812 864.539062 L 1242.710938 864.359375 L 1242.660156 864.128906 L 1242.5625 863.902344 L 1242.5625 863.785156 L 1242.515625 863.667969 L 1242.515625 863.550781 L 1242.46875 863.433594 L 1242.417969 863.316406 L 1242.417969 863.199219 L 1242.371094 863.082031 L 1242.371094 862.964844 L 1242.320312 862.84375 L 1242.320312 862.726562 L 1242.273438 862.609375 L 1242.222656 862.371094 L 1242.222656 862.25 L 1242.175781 862.132812 L 1242.175781 862.011719 L 1242.125 861.890625 L 1242.125 861.652344 L 1242.078125 861.527344 L 1242.078125 861.40625 L 1242.027344 861.285156 L 1242.027344 860.921875 L 1241.980469 860.796875 L 1241.980469 860.429688 L 1241.929688 860.304688 L 1241.929688 859.6875 L 1241.882812 859.5625 L 1241.882812 857.808594 L 1241.929688 857.628906 L 1241.929688 857.046875 L 1241.980469 856.921875 C 1242.855469 846.996094 1251.183594 839.203125 1261.363281 839.203125 C 1343.765625 839.203125 1431.816406 839.203125 1431.816406 839.203125 C 1447.9375 839.203125 1461.039062 826.105469 1461.039062 809.976562 C 1461.039062 793.914062 1448.035156 780.855469 1432.160156 780.753906 C 1432.160156 780.753906 1431.816406 780.753906 1431.816406 780.753906 L 311.6875 780.753906 C 300.925781 780.753906 292.207031 772.023438 292.207031 761.269531 C 292.207031 761.1875 292.207031 761.105469 292.207031 761.015625 C 292.207031 759.90625 292.355469 758.820312 292.546875 757.757812 L 292.546875 757.640625 C 292.695312 756.8125 292.890625 756.003906 293.183594 755.21875 C 293.183594 755.101562 293.230469 754.992188 293.277344 754.878906 C 293.667969 753.761719 294.15625 752.691406 294.738281 751.679688 L 294.789062 751.578125 C 294.789062 751.542969 294.835938 751.507812 294.835938 751.472656 L 294.886719 751.386719 C 294.933594 751.347656 294.933594 751.308594 294.984375 751.269531 C 295.03125 751.207031 295.03125 751.148438 295.082031 751.085938 C 295.128906 751.046875 295.128906 751.003906 295.179688 750.964844 L 295.226562 750.871094 C 295.226562 750.835938 295.277344 750.800781 295.277344 750.773438 L 295.375 750.621094 C 295.617188 750.265625 295.859375 749.914062 296.105469 749.574219 L 296.199219 749.472656 C 299.316406 745.390625 303.992188 742.574219 309.351562 741.929688 C 309.351562 741.929688 309.449219 741.914062 309.449219 741.914062 C 310.179688 741.832031 310.957031 741.785156 311.6875 741.785156 Z M 647.726562 1150.929688 L 647.726562 1053.515625 C 647.726562 1042.761719 639.007812 1034.03125 628.246094 1034.03125 C 617.484375 1034.03125 608.765625 1042.761719 608.765625 1053.515625 L 608.765625 1150.929688 C 608.765625 1161.683594 617.484375 1170.414062 628.246094 1170.414062 C 639.007812 1170.414062 647.726562 1161.683594 647.726562 1150.929688 Z M 769.480469 1150.929688 L 769.480469 1053.515625 C 769.480469 1042.761719 760.761719 1034.03125 750 1034.03125 C 739.238281 1034.03125 730.519531 1042.761719 730.519531 1053.515625 L 730.519531 1150.929688 C 730.519531 1161.683594 739.238281 1170.414062 750 1170.414062 C 760.761719 1170.414062 769.480469 1161.683594 769.480469 1150.929688 Z M 891.234375 1150.929688 L 891.234375 1053.515625 C 891.234375 1042.761719 882.515625 1034.03125 871.753906 1034.03125 C 860.988281 1034.03125 852.273438 1042.761719 852.273438 1053.515625 L 852.273438 1150.929688 C 852.273438 1161.683594 860.988281 1170.414062 871.753906 1170.414062 C 882.515625 1170.414062 891.234375 1161.683594 891.234375 1150.929688 Z M 404.21875 1150.929688 L 404.21875 1004.808594 C 404.21875 994.050781 395.503906 985.324219 384.738281 985.324219 C 373.976562 985.324219 365.257812 994.050781 365.257812 1004.808594 L 365.257812 1150.929688 C 365.257812 1161.683594 373.976562 1170.414062 384.738281 1170.414062 C 395.503906 1170.414062 404.21875 1161.683594 404.21875 1150.929688 Z M 1012.988281 1150.929688 L 1012.988281 1004.808594 C 1012.988281 994.050781 1004.269531 985.324219 993.507812 985.324219 C 982.742188 985.324219 974.027344 994.050781 974.027344 1004.808594 L 974.027344 1150.929688 C 974.027344 1161.683594 982.742188 1170.414062 993.507812 1170.414062 C 1004.269531 1170.414062 1012.988281 1161.683594 1012.988281 1150.929688 Z M 525.972656 1150.929688 L 525.972656 1004.808594 C 525.972656 994.050781 517.257812 985.324219 506.492188 985.324219 C 495.730469 985.324219 487.011719 994.050781 487.011719 1004.808594 L 487.011719 1150.929688 C 487.011719 1161.683594 495.730469 1170.414062 506.492188 1170.414062 C 517.257812 1170.414062 525.972656 1161.683594 525.972656 1150.929688 Z M 1134.738281 1150.929688 L 1134.738281 1004.808594 C 1134.738281 994.050781 1126.023438 985.324219 1115.257812 985.324219 C 1104.496094 985.324219 1095.777344 994.050781 1095.777344 1004.808594 L 1095.777344 1150.929688 C 1095.777344 1161.683594 1104.496094 1170.414062 1115.257812 1170.414062 C 1126.023438 1170.414062 1134.738281 1161.683594 1134.738281 1150.929688 Z M 404.21875 615.148438 L 404.21875 469.023438 C 404.21875 458.269531 395.503906 449.542969 384.738281 449.542969 C 373.976562 449.542969 365.257812 458.269531 365.257812 469.023438 L 365.257812 615.148438 C 365.257812 625.902344 373.976562 634.628906 384.738281 634.628906 C 395.503906 634.628906 404.21875 625.902344 404.21875 615.148438 Z M 769.480469 615.148438 L 769.480469 469.023438 C 769.480469 458.269531 760.761719 449.542969 750 449.542969 C 739.238281 449.542969 730.519531 458.269531 730.519531 469.023438 L 730.519531 615.148438 C 730.519531 625.902344 739.238281 634.628906 750 634.628906 C 760.761719 634.628906 769.480469 625.902344 769.480469 615.148438 Z M 1012.988281 615.148438 L 1012.988281 469.023438 C 1012.988281 458.269531 1004.269531 449.542969 993.507812 449.542969 C 982.742188 449.542969 974.027344 458.269531 974.027344 469.023438 L 974.027344 615.148438 C 974.027344 625.902344 982.742188 634.628906 993.507812 634.628906 C 1004.269531 634.628906 1012.988281 625.902344 1012.988281 615.148438 Z M 891.234375 615.148438 L 891.234375 469.023438 C 891.234375 458.269531 882.515625 449.542969 871.753906 449.542969 C 860.988281 449.542969 852.273438 458.269531 852.273438 469.023438 L 852.273438 615.148438 C 852.273438 625.902344 860.988281 634.628906 871.753906 634.628906 C 882.515625 634.628906 891.234375 625.902344 891.234375 615.148438 Z M 647.726562 615.148438 L 647.726562 469.023438 C 647.726562 458.269531 639.007812 449.542969 628.246094 449.542969 C 617.484375 449.542969 608.765625 458.269531 608.765625 469.023438 L 608.765625 615.148438 C 608.765625 625.902344 617.484375 634.628906 628.246094 634.628906 C 639.007812 634.628906 647.726562 625.902344 647.726562 615.148438 Z M 525.972656 615.148438 L 525.972656 469.023438 C 525.972656 458.269531 517.257812 449.542969 506.492188 449.542969 C 495.730469 449.542969 487.011719 458.269531 487.011719 469.023438 L 487.011719 615.148438 C 487.011719 625.902344 495.730469 634.628906 506.492188 634.628906 C 517.257812 634.628906 525.972656 625.902344 525.972656 615.148438 Z M 1134.738281 615.148438 L 1134.738281 469.023438 C 1134.738281 458.269531 1126.023438 449.542969 1115.257812 449.542969 C 1104.496094 449.542969 1095.777344 458.269531 1095.777344 469.023438 L 1095.777344 615.148438 C 1095.777344 625.902344 1104.496094 634.628906 1115.257812 634.628906 C 1126.023438 634.628906 1134.738281 625.902344 1134.738281 615.148438 Z M 1134.738281 615.148438 " fill-opacity="1" fill-rule="evenodd"/></g></svg>