<svg xmlns="http://www.w3.org/2000/svg" xmlns:xlink="http://www.w3.org/1999/xlink" width="2000" zoomAndPan="magnify" viewBox="0 0 1500 1499.999933" height="2000" preserveAspectRatio="xMidYMid meet" version="1.0"><path fill="#231f20" d="M 1099.078125 1500.085938 L 962.167969 1500.085938 L 1008.402344 1105.484375 L 1011.085938 1103.394531 C 1054.335938 1069.097656 1077.304688 1027.636719 1077.304688 983.792969 C 1077.304688 950.089844 1063.285156 916.980469 1036.738281 887.75 L 1034.351562 885.066406 L 1034.652344 881.488281 L 1082.972656 467.496094 L 1296.242188 467.496094 L 1294.453125 477.042969 Z M 980.066406 1484.28125 L 1085.65625 1484.28125 L 1276.851562 483.902344 L 1096.992188 483.902344 L 1050.757812 879.996094 C 1078.5 911.613281 1093.113281 947.402344 1093.113281 983.792969 C 1093.113281 1030.917969 1068.355469 1077.148438 1023.316406 1113.835938 Z M 598.269531 1500.085938 L 461.359375 1500.085938 L 264.199219 467.796875 L 477.46875 467.796875 L 526.386719 885.367188 L 524 888.050781 C 497.453125 917.28125 483.433594 950.386719 483.433594 984.089844 C 483.433594 1027.9375 506.402344 1069.394531 549.652344 1103.695312 L 552.335938 1105.78125 L 552.632812 1109.0625 Z M 474.484375 1484.28125 L 580.074219 1484.28125 L 536.824219 1114.132812 C 491.785156 1077.449219 467.027344 1031.515625 467.027344 984.089844 C 467.027344 947.402344 481.644531 911.613281 509.382812 880.292969 L 463.449219 483.902344 L 283.289062 483.902344 Z M 474.484375 1484.28125 " fill-opacity="1" fill-rule="nonzero"/><path fill="#231f20" d="M 978.277344 1500.085938 L 841.664062 1500.085938 L 855.984375 1168.121094 L 862.246094 1166.925781 C 920.710938 1156.1875 972.011719 1134.117188 1011.085938 1103.394531 L 1026.300781 1091.464844 Z M 858.367188 1484.28125 L 963.960938 1484.28125 L 1005.71875 1127.257812 C 968.433594 1152.910156 922.5 1171.402344 871.195312 1181.839844 Z M 718.476562 1500.085938 L 581.863281 1500.085938 L 534.140625 1091.464844 L 549.351562 1103.394531 C 588.128906 1134.117188 639.730469 1156.1875 698.195312 1166.925781 L 704.457031 1168.121094 Z M 596.183594 1484.28125 L 701.773438 1484.28125 L 688.945312 1181.542969 C 637.644531 1171.402344 591.707031 1152.609375 554.421875 1126.960938 Z M 512.066406 900.875 L 461.359375 467.796875 L 674.332031 467.796875 L 688.648438 802.449219 L 682.085938 803.9375 C 615.867188 818.851562 559.492188 848.679688 523.699219 888.050781 Z M 479.257812 483.902344 L 523.699219 865.382812 C 560.390625 831.082031 611.992188 804.535156 671.945312 790.21875 L 658.820312 483.902344 Z M 1048.371094 900.875 L 1036.441406 888.050781 C 1000.648438 848.679688 944.273438 818.851562 878.054688 803.9375 L 871.492188 802.449219 L 885.808594 467.796875 L 1098.78125 467.796875 Z M 888.195312 789.921875 C 948.152344 804.238281 999.753906 830.78125 1036.441406 865.082031 L 1080.882812 483.601562 L 901.023438 483.601562 Z M 888.195312 789.921875 " fill-opacity="1" fill-rule="nonzero"/><path fill="#231f20" d="M 857.773438 1500.085938 L 702.667969 1500.085938 L 688.351562 1165.433594 L 698.195312 1167.226562 C 751.585938 1177.066406 808.855469 1177.066406 862.246094 1167.226562 L 872.089844 1165.433594 Z M 717.878906 1484.28125 L 842.261719 1484.28125 L 855.085938 1184.523438 C 805.871094 1192.578125 754.269531 1192.578125 705.054688 1184.523438 Z M 887.300781 806.324219 L 878.054688 804.238281 C 815.117188 789.921875 745.320312 789.921875 682.382812 804.238281 L 673.136719 806.324219 L 658.523438 467.796875 L 901.917969 467.796875 Z M 675.226562 483.902344 L 688.050781 786.640625 C 747.707031 774.410156 812.433594 774.410156 872.089844 786.640625 L 884.914062 483.902344 Z M 675.226562 483.902344 " fill-opacity="1" fill-rule="nonzero"/><path fill="#231f20" d="M 780.21875 1190.488281 C 607.515625 1190.488281 467.324219 1097.730469 467.324219 983.792969 C 467.324219 869.855469 607.816406 777.09375 780.21875 777.09375 C 952.921875 777.09375 1093.113281 869.855469 1093.113281 983.792969 C 1093.113281 1039.566406 1060.003906 1091.765625 1000.050781 1130.835938 C 941.289062 1169.3125 863.140625 1190.488281 780.21875 1190.488281 Z M 780.21875 793.5 C 616.464844 793.5 483.136719 879.101562 483.136719 984.089844 C 483.136719 1089.078125 616.464844 1174.679688 780.21875 1174.679688 C 860.160156 1174.679688 935.027344 1154.398438 991.402344 1117.714844 C 1046.582031 1081.625 1077.007812 1034.199219 1077.007812 984.089844 C 1077.304688 878.804688 943.976562 793.5 780.21875 793.5 Z M 780.21875 793.5 " fill-opacity="1" fill-rule="nonzero"/><path fill="#231f20" d="M 780.21875 1152.011719 C 711.617188 1152.011719 646.890625 1135.011719 597.972656 1103.992188 C 548.160156 1072.375 520.71875 1029.726562 520.71875 984.089844 C 520.71875 891.628906 637.046875 816.167969 780.21875 816.167969 C 923.394531 816.167969 1039.722656 891.628906 1039.722656 984.089844 C 1039.722656 1076.550781 923.09375 1152.011719 780.21875 1152.011719 Z M 780.21875 831.976562 C 645.996094 831.976562 536.824219 900.277344 536.824219 984.089844 C 536.824219 1024.058594 561.582031 1061.9375 606.921875 1090.570312 C 653.152344 1120.097656 714.898438 1136.207031 780.519531 1136.207031 C 914.742188 1136.207031 1023.914062 1067.902344 1023.914062 984.089844 C 1023.613281 900.277344 914.445312 831.976562 780.21875 831.976562 Z M 780.21875 831.976562 " fill-opacity="1" fill-rule="nonzero"/><path fill="#231f20" d="M 668.066406 491.953125 C 668.066406 491.953125 667.769531 491.953125 668.066406 491.953125 C 663.59375 491.953125 660.015625 488.375 660.015625 483.902344 C 660.3125 451.6875 653.453125 428.425781 639.132812 415.300781 C 627.5 404.5625 610.5 399.792969 588.726562 401.582031 L 574.40625 402.773438 L 580.96875 389.949219 C 594.09375 364.296875 586.636719 323.433594 565.160156 305.839844 C 545.175781 289.433594 515.945312 295.101562 482.835938 321.644531 L 473.886719 328.804688 L 470.308594 317.769531 C 455.992188 273.625 422.585938 257.816406 395.441406 261.398438 C 369.789062 264.976562 342.050781 287.34375 340.558594 339.542969 L 340.257812 350.28125 L 330.117188 346.699219 C 311.328125 340.136719 268.972656 362.804688 253.757812 394.125 C 240.933594 420.074219 250.179688 444.234375 280.304688 463.917969 C 283.886719 466.304688 285.078125 471.375 282.691406 474.953125 C 280.304688 478.53125 275.234375 479.726562 271.65625 477.339844 C 234.96875 453.179688 223.335938 420.371094 239.441406 386.964844 C 255.546875 354.15625 296.414062 327.609375 325.34375 329.699219 C 330.117188 274.519531 364.121094 250.0625 393.054688 245.886719 C 429.742188 240.816406 464.640625 263.78125 481.34375 302.558594 C 529.667969 267.957031 560.390625 281.679688 575.003906 293.3125 C 598.867188 312.699219 609.007812 353.558594 599.761719 384.878906 C 620.640625 385.175781 637.34375 391.441406 649.871094 403.070312 C 667.472656 419.476562 676.121094 446.617188 675.824219 483.601562 C 675.824219 488.375 672.242188 491.953125 668.066406 491.953125 Z M 668.066406 491.953125 " fill-opacity="1" fill-rule="nonzero"/><path fill="#231f20" d="M 1043.601562 483.304688 C 1039.125 483.304688 1035.546875 479.726562 1035.546875 475.253906 C 1035.546875 472.566406 1036.144531 468.691406 1037.039062 463.917969 C 1039.421875 449.003906 1043.300781 424.25 1031.070312 408.738281 C 1023.613281 399.492188 1010.789062 394.125 992.890625 393.230469 L 978.875 392.335938 L 986.925781 380.703125 C 1007.507812 350.578125 997.664062 313.292969 977.082031 295.996094 C 954.414062 277.203125 923.09375 283.46875 893.265625 312.996094 L 883.125 322.839844 L 879.84375 309.117188 C 871.792969 275.414062 852.402344 253.941406 827.945312 252.152344 C 800.800781 250.0625 773.359375 272.433594 758.445312 308.820312 L 753.972656 320.15625 L 745.621094 311.503906 C 723.25 288.539062 673.4375 262.292969 638.238281 272.433594 C 617.359375 278.398438 603.339844 296.890625 596.777344 327.015625 C 595.882812 331.191406 591.707031 334.171875 587.234375 332.980469 C 583.058594 332.085938 580.074219 327.910156 581.269531 323.4375 C 589.023438 287.046875 606.921875 264.675781 633.765625 256.921875 C 672.542969 245.886719 721.460938 269.449219 748.601562 292.417969 C 767.097656 255.429688 797.820312 233.957031 829.4375 236.042969 C 857.773438 238.132812 880.441406 259.011719 891.777344 292.714844 C 930.851562 260.203125 966.046875 266.167969 987.226562 283.765625 C 1010.789062 303.453125 1023.316406 343.417969 1006.316406 378.914062 C 1022.71875 381.894531 1035.246094 388.457031 1043.601562 398.894531 C 1060.304688 419.773438 1055.53125 449.003906 1052.847656 466.601562 C 1052.25 470.480469 1051.652344 473.460938 1051.652344 475.550781 C 1051.652344 479.726562 1048.074219 483.304688 1043.601562 483.304688 Z M 1043.601562 483.304688 " fill-opacity="1" fill-rule="nonzero"/><path fill="#231f20" d="M 1291.171875 486.289062 C 1288.484375 486.289062 1286.101562 485.09375 1284.609375 482.707031 C 1282.222656 479.128906 1283.117188 474.058594 1286.996094 471.671875 C 1297.136719 465.109375 1332.035156 400.6875 1318.613281 369.667969 C 1310.855469 351.769531 1286.996094 347.894531 1247.921875 357.4375 L 1233.601562 361.015625 L 1238.375 347 C 1247.324219 321.644531 1235.988281 286.449219 1215.40625 275.117188 C 1195.722656 264.378906 1171.261719 275.414062 1145.910156 306.433594 L 1135.765625 318.960938 L 1131.890625 303.152344 C 1125.925781 278.097656 1089.535156 237.832031 1053.742188 236.34375 C 1022.71875 235.148438 1006.316406 264.378906 997.964844 289.433594 C 996.472656 293.609375 991.996094 295.695312 987.820312 294.503906 C 983.644531 293.011719 981.558594 288.539062 982.75 284.363281 C 1001.242188 229.78125 1031.667969 219.042969 1054.335938 220.535156 C 1090.429688 222.027344 1128.011719 254.835938 1142.328125 286.152344 C 1179.316406 246.78125 1208.25 253.34375 1222.863281 261.398438 C 1247.023438 274.820312 1260.746094 308.820312 1256.273438 339.242188 C 1296.835938 331.488281 1322.488281 339.542969 1332.929688 363.105469 C 1349.929688 402.175781 1311.15625 474.355469 1295.644531 484.796875 C 1294.152344 485.691406 1292.660156 486.289062 1291.171875 486.289062 Z M 1291.171875 486.289062 " fill-opacity="1" fill-rule="nonzero"/><path fill="#231f20" d="M 444.359375 272.132812 C 440.777344 272.132812 437.199219 269.449219 436.601562 265.871094 C 422.285156 194.289062 451.515625 154.320312 484.03125 141.195312 C 518.035156 127.179688 557.703125 138.808594 585.144531 169.53125 C 595.882812 122.703125 630.78125 101.824219 660.3125 98.246094 C 692.527344 94.367188 731.003906 108.984375 750.390625 148.949219 C 771.867188 120.617188 791.554688 109.878906 810.347656 115.546875 C 855.386719 129.5625 866.421875 241.710938 866.125 256.324219 C 866.125 260.800781 862.542969 264.082031 858.070312 264.082031 C 853.597656 264.082031 850.015625 260.5 850.316406 256.027344 C 850.613281 234.851562 836.296875 140.300781 805.574219 130.757812 C 788.871094 125.6875 768.886719 149.25 754.867188 169.828125 L 745.621094 183.550781 L 740.550781 167.742188 C 727.125 125.386719 691.632812 110.175781 662.101562 113.757812 C 634.957031 117.035156 601.550781 138.808594 597.972656 189.515625 L 596.183594 213.078125 L 583.355469 193.09375 C 560.390625 157.898438 521.910156 142.390625 489.695312 155.511719 C 463.449219 166.546875 439.585938 200.253906 452.113281 262.589844 C 453.007812 266.765625 450.324219 271.238281 445.851562 271.835938 C 445.253906 271.835938 444.65625 272.132812 444.359375 272.132812 Z M 444.359375 272.132812 " fill-opacity="1" fill-rule="nonzero"/><path fill="#231f20" d="M 1139.644531 288.242188 C 1138.152344 288.242188 1136.664062 287.941406 1135.171875 286.75 C 1131.589844 284.363281 1130.695312 279.292969 1133.082031 275.714844 C 1147.699219 254.238281 1156.347656 219.9375 1143.523438 199.058594 C 1133.679688 183.25 1112.5 176.988281 1082.078125 180.867188 L 1072.832031 182.058594 L 1072.832031 172.8125 C 1073.128906 142.6875 1067.164062 107.492188 1049.863281 99.140625 C 1034.949219 91.984375 1012.875 105.703125 996.769531 118.527344 L 983.644531 129.265625 L 983.945312 112.265625 C 984.242188 96.753906 978.277344 85.421875 966.34375 78.5625 C 946.660156 67.226562 913.25 70.507812 887.003906 86.316406 C 872.6875 94.964844 848.824219 114.652344 850.015625 148.652344 C 850.316406 153.125 846.734375 156.707031 842.261719 157.003906 C 837.789062 157.300781 834.207031 153.722656 833.910156 149.25 C 832.71875 118.527344 849.121094 90.492188 878.351562 72.59375 C 909.671875 53.804688 948.746094 50.523438 973.800781 64.542969 C 986.628906 71.699219 994.683594 83.035156 997.964844 97.351562 C 1021.230469 81.246094 1040.914062 77.070312 1056.425781 84.527344 C 1082.375 97.054688 1087.746094 139.109375 1088.339844 163.863281 C 1128.90625 160.882812 1147.699219 176.390625 1156.347656 190.410156 C 1173.648438 218.746094 1162.910156 259.011719 1145.3125 284.660156 C 1144.714844 287.046875 1142.328125 288.242188 1139.644531 288.242188 Z M 1139.644531 288.242188 " fill-opacity="1" fill-rule="nonzero"/><path fill="#231f20" d="M 552.335938 153.722656 C 549.054688 153.722656 545.773438 151.636719 544.878906 148.054688 C 528.769531 97.648438 569.636719 49.628906 614.675781 26.363281 C 655.539062 5.1875 708.929688 0.117188 740.847656 32.328125 C 748.902344 24.875 762.917969 19.207031 780.21875 17.117188 C 815.117188 12.644531 865.527344 22.488281 892.671875 63.648438 C 895.058594 67.226562 894.164062 72.296875 890.285156 74.683594 C 886.707031 77.070312 881.632812 76.175781 879.25 72.296875 C 855.984375 37.101562 812.433594 29.050781 782.007812 32.628906 C 762.917969 35.015625 750.390625 42.171875 748.601562 47.542969 L 743.53125 61.859375 L 734.582031 49.628906 C 709.527344 15.925781 659.714844 20.398438 621.535156 40.085938 C 582.164062 60.367188 546.070312 100.929688 559.492188 142.6875 C 560.984375 146.863281 558.597656 151.335938 554.421875 152.828125 C 553.828125 153.722656 552.933594 153.722656 552.335938 153.722656 Z M 552.335938 153.722656 " fill-opacity="1" fill-rule="nonzero"/><path fill="#231f20" d="M 1127.414062 335.960938 C 1125.328125 335.960938 1123.238281 334.472656 1122.644531 332.382812 C 1121.75 329.996094 1121.449219 328.207031 1121.152344 326.714844 C 1120.257812 323.734375 1119.957031 322.242188 1117.273438 318.066406 C 1115.78125 315.679688 1116.679688 312.699219 1119.0625 311.207031 C 1121.449219 309.714844 1124.433594 310.609375 1125.925781 312.996094 C 1129.207031 318.363281 1129.800781 320.75 1130.695312 324.332031 C 1130.996094 325.820312 1131.589844 327.3125 1132.1875 329.402344 C 1133.082031 332.085938 1131.589844 334.769531 1128.90625 335.664062 C 1128.609375 335.664062 1128.011719 335.960938 1127.414062 335.960938 Z M 1110.414062 303.453125 C 1108.921875 303.453125 1107.429688 302.855469 1106.535156 301.664062 C 1102.0625 295.996094 1096.992188 291.222656 1091.621094 287.34375 C 1077.007812 276.90625 1056.722656 275.414062 1041.808594 283.765625 C 1039.421875 284.960938 1036.441406 284.363281 1034.949219 281.679688 C 1033.757812 279.292969 1034.351562 276.308594 1037.039062 274.820312 C 1055.53125 264.675781 1079.691406 266.46875 1097.589844 278.996094 C 1103.851562 283.46875 1109.519531 288.835938 1114.589844 295.101562 C 1116.378906 297.1875 1116.082031 300.46875 1113.695312 301.960938 C 1112.5 302.855469 1111.605469 303.453125 1110.414062 303.453125 Z M 1110.414062 303.453125 " fill-opacity="1" fill-rule="nonzero"/><path fill="#231f20" d="M 978.574219 173.410156 C 976.785156 173.410156 975.292969 172.515625 974.398438 171.023438 C 972.011719 167.144531 970.519531 165.953125 967.835938 163.863281 C 966.34375 162.671875 964.855469 161.476562 963.0625 159.6875 C 960.976562 157.898438 960.976562 154.617188 962.765625 152.53125 C 964.554688 150.441406 967.835938 150.441406 969.925781 152.230469 C 971.714844 153.722656 973.207031 154.917969 974.398438 155.8125 C 977.382812 158.195312 979.769531 160.285156 983.050781 165.355469 C 984.539062 167.742188 983.945312 170.722656 981.558594 172.214844 C 980.664062 173.410156 979.46875 173.410156 978.574219 173.410156 Z M 886.40625 154.917969 C 885.214844 154.917969 884.320312 154.617188 883.425781 154.023438 C 881.335938 152.230469 880.738281 149.25 882.53125 147.160156 C 888.496094 139.40625 898.636719 129.265625 912.65625 126.582031 C 922.199219 124.792969 932.640625 126.28125 943.078125 131.054688 C 948.152344 133.441406 952.921875 136.125 957.398438 139.40625 C 959.785156 140.898438 960.082031 144.179688 958.589844 146.265625 C 957.097656 148.652344 953.816406 148.949219 951.730469 147.460938 C 947.554688 144.476562 943.378906 142.089844 938.902344 140.003906 C 932.9375 137.320312 923.988281 134.335938 914.742188 136.425781 C 903.707031 138.511719 895.355469 146.863281 890.582031 153.425781 C 889.390625 154.320312 887.898438 154.917969 886.40625 154.917969 Z M 886.40625 154.917969 " fill-opacity="1" fill-rule="nonzero"/><path fill="#231f20" d="M 766.199219 354.457031 C 766.199219 354.457031 765.902344 354.457031 765.902344 354.457031 C 763.21875 354.15625 761.128906 351.769531 761.128906 349.085938 C 762.023438 333.875 767.691406 296.59375 796.921875 282.273438 C 803.484375 278.996094 810.941406 277.503906 818.996094 278.097656 C 821.679688 278.398438 823.769531 280.484375 823.769531 283.46875 C 823.46875 286.152344 821.085938 288.539062 818.398438 288.242188 C 812.136719 287.941406 806.46875 288.835938 801.398438 291.519531 C 776.640625 303.75 772.167969 336.558594 771.273438 349.980469 C 770.972656 352.367188 768.585938 354.457031 766.199219 354.457031 Z M 856.578125 306.734375 C 855.386719 306.734375 853.894531 306.136719 853 305.242188 L 850.613281 302.558594 C 845.839844 297.488281 844.351562 295.996094 837.488281 293.609375 C 834.804688 292.714844 833.613281 289.730469 834.507812 287.34375 C 835.402344 284.660156 838.382812 283.46875 840.769531 284.363281 C 849.71875 287.644531 852.703125 290.625 857.773438 295.996094 L 860.160156 298.679688 C 861.949219 300.765625 861.949219 303.75 860.160156 305.839844 C 858.964844 306.433594 857.773438 306.734375 856.578125 306.734375 Z M 856.578125 306.734375 " fill-opacity="1" fill-rule="nonzero"/><path fill="#231f20" d="M 469.414062 255.132812 C 467.625 255.132812 465.835938 254.238281 464.941406 252.449219 C 461.359375 245.289062 458.078125 234.253906 461.359375 223.21875 C 463.449219 216.058594 468.519531 209.199219 475.679688 203.535156 C 478.660156 201.148438 482.238281 198.761719 486.117188 196.972656 C 488.503906 195.777344 491.488281 196.671875 492.976562 199.058594 C 494.171875 201.445312 493.277344 204.429688 490.890625 205.917969 C 487.609375 207.710938 484.625 209.5 481.941406 211.585938 C 478.0625 214.570312 472.992188 219.640625 470.90625 226.203125 C 468.519531 234.253906 471.203125 242.605469 473.886719 248.273438 C 475.082031 250.660156 474.1875 253.640625 471.503906 254.835938 C 470.90625 255.132812 470.308594 255.132812 469.414062 255.132812 Z M 505.503906 198.464844 C 503.417969 198.464844 501.628906 197.269531 501.03125 195.480469 C 499.839844 192.796875 501.328125 190.113281 503.714844 188.917969 C 506.996094 187.726562 508.191406 187.425781 510.277344 187.425781 C 510.578125 187.425781 510.875 187.425781 512.664062 186.832031 C 515.347656 185.9375 518.035156 187.425781 518.929688 190.113281 C 519.824219 192.796875 518.332031 195.480469 515.648438 196.375 C 512.664062 197.269531 511.171875 197.566406 509.679688 197.269531 C 509.679688 197.269531 509.085938 197.566406 507.59375 198.164062 C 506.699219 198.164062 506.101562 198.464844 505.503906 198.464844 Z M 505.503906 198.464844 " fill-opacity="1" fill-rule="nonzero"/><path fill="#231f20" d="M 289.851562 443.636719 C 287.464844 443.636719 285.078125 441.847656 284.78125 439.160156 C 282.988281 422.757812 282.394531 403.96875 293.429688 389.949219 C 296.710938 386.070312 300.589844 382.492188 305.359375 379.507812 C 307.746094 378.019531 310.730469 378.613281 312.222656 381 C 313.710938 383.386719 312.816406 386.371094 310.730469 387.859375 C 306.851562 390.246094 303.871094 392.929688 301.183594 395.914062 C 292.535156 406.949219 292.832031 423.054688 294.621094 437.671875 C 294.921875 440.355469 293.132812 442.742188 290.148438 443.335938 C 290.445312 443.636719 290.148438 443.636719 289.851562 443.636719 Z M 322.066406 382.195312 C 320.273438 382.195312 318.1875 381 317.589844 379.210938 C 316.398438 376.824219 317.589844 373.84375 320.273438 372.648438 C 324.449219 370.859375 325.941406 370.5625 328.328125 369.964844 C 329.523438 369.667969 331.011719 369.367188 333.101562 368.773438 C 335.785156 367.875 338.46875 369.367188 339.363281 372.050781 C 340.257812 374.738281 338.769531 377.421875 336.082031 378.316406 C 333.699219 379.210938 332.207031 379.507812 330.714844 379.808594 C 328.925781 380.105469 327.433594 380.703125 324.449219 381.894531 C 323.554688 381.894531 322.960938 382.195312 322.066406 382.195312 Z M 322.066406 382.195312 " fill-opacity="1" fill-rule="nonzero"/><path fill="#231f20" d="M 345.925781 678.964844 C 343.539062 678.964844 341.453125 677.175781 341.15625 674.789062 L 321.46875 569.800781 C 320.871094 567.117188 322.660156 564.433594 325.34375 564.136719 C 328.03125 563.835938 330.714844 565.328125 331.011719 568.011719 L 350.402344 673.300781 C 350.996094 675.984375 349.207031 678.667969 346.523438 678.964844 C 346.523438 678.964844 346.226562 678.964844 345.925781 678.964844 Z M 345.925781 678.964844 " fill-opacity="1" fill-rule="nonzero"/><path fill="#231f20" d="M 355.769531 726.988281 C 353.382812 726.988281 351.296875 725.496094 350.996094 723.109375 L 346.820312 704.019531 C 346.226562 701.335938 348.015625 698.652344 350.699219 698.054688 C 353.382812 697.457031 356.066406 699.25 356.664062 701.933594 L 360.839844 721.023438 C 361.4375 723.707031 359.648438 726.390625 356.964844 726.988281 C 356.367188 726.988281 356.066406 726.988281 355.769531 726.988281 Z M 355.769531 726.988281 " fill-opacity="1" fill-rule="nonzero"/><path fill="#231f20" d="M 479.257812 1414.1875 C 476.871094 1414.1875 474.78125 1412.398438 474.484375 1410.011719 L 457.183594 1311.585938 C 456.589844 1308.902344 458.378906 1306.214844 461.359375 1305.917969 C 464.046875 1305.320312 466.730469 1307.410156 467.027344 1310.09375 L 484.328125 1408.519531 C 484.925781 1411.207031 483.136719 1413.890625 480.152344 1414.1875 C 479.855469 1414.1875 479.554688 1414.1875 479.257812 1414.1875 Z M 479.257812 1414.1875 " fill-opacity="1" fill-rule="nonzero"/><path fill="#231f20" d="M 1216.300781 672.105469 C 1216.003906 672.105469 1215.707031 672.105469 1215.40625 672.105469 C 1212.722656 671.511719 1210.933594 668.824219 1211.53125 666.140625 L 1231.8125 562.34375 C 1232.410156 559.660156 1234.796875 557.871094 1237.777344 558.46875 C 1240.464844 559.0625 1242.253906 561.75 1241.65625 564.433594 L 1221.375 668.230469 C 1220.777344 670.316406 1218.6875 672.105469 1216.300781 672.105469 Z M 1216.300781 672.105469 " fill-opacity="1" fill-rule="nonzero"/><path fill="#231f20" d="M 1207.652344 721.023438 C 1207.355469 721.023438 1207.054688 721.023438 1206.757812 721.023438 C 1204.074219 720.425781 1202.285156 718.039062 1202.878906 715.355469 L 1205.863281 699.546875 C 1206.460938 696.863281 1208.847656 695.074219 1211.53125 695.667969 C 1214.214844 696.265625 1216.003906 698.652344 1215.40625 701.335938 L 1212.425781 717.144531 C 1212.125 719.230469 1210.039062 721.023438 1207.652344 721.023438 Z M 1207.652344 721.023438 " fill-opacity="1" fill-rule="nonzero"/><path fill="#231f20" d="M 961.871094 1308.304688 C 961.574219 1308.304688 961.574219 1308.304688 961.273438 1308.304688 C 958.589844 1308.003906 956.503906 1305.320312 957.097656 1302.636719 L 966.046875 1235.824219 C 966.34375 1233.140625 969.03125 1231.351562 971.714844 1231.648438 C 974.398438 1231.949219 976.488281 1234.632812 975.890625 1237.316406 L 966.941406 1304.128906 C 966.644531 1306.515625 964.257812 1308.304688 961.871094 1308.304688 Z M 961.871094 1308.304688 " fill-opacity="1" fill-rule="nonzero"/><path fill="#231f20" d="M 955.609375 1356.621094 C 955.308594 1356.621094 955.011719 1356.621094 954.710938 1356.621094 C 952.027344 1356.324219 950.238281 1353.640625 950.535156 1350.957031 L 953.519531 1333.058594 C 953.816406 1330.375 956.503906 1328.289062 959.1875 1328.882812 C 961.871094 1329.183594 963.660156 1331.867188 963.363281 1334.550781 L 960.378906 1352.445312 C 960.082031 1354.832031 957.992188 1356.621094 955.609375 1356.621094 Z M 955.609375 1356.621094 " fill-opacity="1" fill-rule="nonzero"/><path fill="#231f20" d="M 884.914062 511.9375 L 617.359375 511.9375 C 614.675781 511.9375 612.289062 509.851562 612.289062 506.867188 C 612.289062 503.886719 614.378906 501.796875 617.359375 501.796875 L 884.914062 501.796875 C 887.601562 501.796875 889.984375 503.886719 889.984375 506.867188 C 889.984375 509.851562 887.601562 511.9375 884.914062 511.9375 Z M 884.914062 511.9375 " fill-opacity="1" fill-rule="nonzero"/><path fill="#231f20" d="M 942.78125 509.550781 L 926.375 509.550781 C 923.691406 509.550781 921.304688 507.464844 921.304688 504.480469 C 921.304688 501.796875 923.394531 499.410156 926.375 499.410156 L 942.78125 499.410156 C 945.464844 499.410156 947.851562 501.5 947.851562 504.480469 C 947.851562 507.464844 945.464844 509.550781 942.78125 509.550781 Z M 942.78125 509.550781 " fill-opacity="1" fill-rule="nonzero"/><path fill="#231f20" d="M 765.007812 60.664062 C 762.917969 60.664062 761.128906 59.472656 760.535156 57.683594 C 759.640625 54.996094 760.832031 52.3125 763.21875 51.121094 C 778.726562 44.855469 796.027344 43.367188 812.433594 46.945312 C 815.117188 47.542969 816.90625 50.226562 816.3125 52.910156 C 815.714844 55.59375 813.03125 57.382812 810.347656 56.789062 C 796.027344 53.507812 780.816406 54.996094 767.09375 60.367188 C 766.199219 60.664062 765.605469 60.664062 765.007812 60.664062 Z M 765.007812 60.664062 " fill-opacity="1" fill-rule="nonzero"/><path fill="#231f20" d="M 832.121094 62.753906 C 831.523438 62.753906 830.628906 62.753906 830.03125 62.453125 L 825.558594 60.367188 C 823.171875 59.171875 821.980469 56.191406 823.171875 53.804688 C 824.363281 51.417969 827.347656 50.226562 829.734375 51.417969 L 834.207031 53.507812 C 836.59375 54.699219 837.789062 57.683594 836.894531 60.066406 C 835.996094 61.859375 834.207031 62.753906 832.121094 62.753906 Z M 832.121094 62.753906 " fill-opacity="1" fill-rule="nonzero"/><path fill="#231f20" d="M 611.691406 1066.113281 C 610.796875 1066.113281 610.203125 1065.816406 609.304688 1065.515625 C 583.355469 1052.09375 564.265625 1027.339844 558.300781 998.707031 C 557.703125 996.019531 559.492188 993.335938 562.179688 992.742188 C 564.863281 992.144531 567.546875 993.933594 568.144531 996.617188 C 573.8125 1022.269531 590.8125 1044.636719 614.078125 1056.570312 C 616.464844 1057.761719 617.359375 1060.746094 616.167969 1063.128906 C 615.273438 1065.21875 613.480469 1066.113281 611.691406 1066.113281 Z M 611.691406 1066.113281 " fill-opacity="1" fill-rule="nonzero"/><path fill="#231f20" d="M 566.054688 965.898438 C 565.460938 965.898438 564.863281 965.898438 564.265625 965.597656 C 561.582031 964.40625 560.390625 961.722656 561.582031 959.035156 L 568.441406 942.632812 C 569.636719 940.246094 572.320312 938.753906 575.003906 939.949219 C 577.6875 941.140625 578.882812 943.824219 577.6875 946.507812 L 570.828125 962.914062 C 569.933594 964.703125 567.847656 965.898438 566.054688 965.898438 Z M 566.054688 965.898438 " fill-opacity="1" fill-rule="nonzero"/></svg>