<svg xmlns="http://www.w3.org/2000/svg" xmlns:xlink="http://www.w3.org/1999/xlink" width="2000" zoomAndPan="magnify" viewBox="0 0 1500 1499.999933" height="2000" preserveAspectRatio="xMidYMid meet" version="1.0"><path fill="#000000" d="M 410.21875 42.523438 C 374.375 42.523438 334.082031 71.765625 299.628906 122.746094 C 243.1875 206.296875 203.878906 349.464844 250.957031 466.382812 C 267.269531 506.851562 293.402344 543.285156 328.652344 574.664062 C 341.527344 586.140625 348.777344 602.542969 348.5625 619.671875 C 347.195312 722.882812 343.167969 827.46875 336.585938 930.5 C 334.367188 965.199219 332.335938 992.554688 330.574219 1016.144531 C 327.011719 1063.917969 324.660156 1095.488281 324.21875 1141.089844 C 323.152344 1250.359375 334.367188 1361.417969 357.554688 1471.148438 C 360.941406 1487.222656 375.339844 1498.886719 391.816406 1498.886719 L 428.621094 1498.886719 C 445.074219 1498.886719 459.484375 1487.234375 462.878906 1471.160156 C 486.046875 1361.429688 497.273438 1250.382812 496.214844 1141.089844 C 495.777344 1095.441406 493.410156 1063.835938 489.847656 1016 C 488.089844 992.445312 486.058594 965.125 483.835938 930.511719 C 477.253906 827.480469 473.226562 722.894531 471.863281 619.695312 C 471.636719 602.566406 478.90625 586.164062 491.785156 574.6875 C 527.042969 543.285156 553.179688 506.863281 569.464844 466.40625 C 616.546875 349.488281 577.234375 206.320312 520.792969 122.769531 C 486.34375 71.765625 446.046875 42.523438 410.21875 42.523438 Z M 547.417969 457.511719 C 532.507812 494.535156 508.476562 527.984375 475.972656 556.929688 C 457.9375 572.980469 447.78125 595.964844 448.089844 619.980469 C 449.457031 723.59375 453.507812 828.585938 460.113281 932.011719 C 462.335938 966.742188 464.367188 994.132812 466.136719 1017.769531 C 469.675781 1065.140625 472.003906 1096.441406 472.445312 1141.316406 C 473.488281 1248.886719 462.441406 1358.199219 439.621094 1466.234375 C 438.527344 1471.386719 433.90625 1475.117188 428.609375 1475.117188 L 391.804688 1475.117188 C 386.503906 1475.117188 381.871094 1471.386719 380.792969 1466.234375 C 357.957031 1358.175781 346.910156 1248.859375 347.96875 1141.316406 C 348.394531 1096.488281 350.722656 1065.222656 354.253906 1017.914062 C 356.011719 994.238281 358.066406 966.800781 360.289062 932.011719 C 366.890625 828.585938 370.929688 723.605469 372.308594 619.980469 C 372.617188 595.976562 362.460938 572.992188 344.441406 556.929688 C 311.960938 528.007812 287.902344 494.570312 272.984375 457.523438 C 229.160156 348.660156 266.269531 214.566406 319.289062 136.0625 C 348.800781 92.375 382.789062 66.289062 410.183594 66.289062 C 437.578125 66.289062 471.554688 92.375 501.0625 136.0625 C 554.128906 214.554688 591.253906 348.648438 547.417969 457.511719 Z M 547.417969 457.511719 " fill-opacity="1" fill-rule="nonzero"/><path fill="#000000" d="M 307.875 416.933594 C 303.476562 412.066406 295.96875 411.683594 291.097656 416.066406 C 286.230469 420.460938 285.847656 427.96875 290.246094 432.851562 C 301.519531 445.359375 343.511719 486.171875 410.230469 486.171875 C 427.085938 486.171875 485.535156 482.324219 530.214844 432.851562 C 534.609375 427.980469 534.230469 420.472656 529.359375 416.078125 C 524.5 411.683594 516.980469 412.066406 512.585938 416.933594 C 474.476562 459.136719 424.617188 462.417969 410.242188 462.417969 C 353.3125 462.417969 317.496094 427.613281 307.875 416.933594 Z M 307.875 416.933594 " fill-opacity="1" fill-rule="nonzero"/><path fill="#000000" d="M 396.28125 1146.695312 C 395.582031 1093.863281 399.609375 1040.542969 408.234375 988.242188 C 409.304688 981.769531 404.929688 975.652344 398.457031 974.59375 C 391.851562 973.40625 385.851562 977.90625 384.808594 984.367188 C 375.957031 1038.058594 371.824219 1092.769531 372.535156 1146.992188 C 373.390625 1214.1875 381.660156 1281.539062 397.078125 1347.164062 C 398.363281 1352.640625 403.257812 1356.324219 408.636719 1356.324219 C 409.539062 1356.324219 410.457031 1356.214844 411.359375 1356.015625 C 417.75 1354.507812 421.707031 1348.117188 420.207031 1341.738281 C 405.167969 1277.785156 397.125 1212.167969 396.28125 1146.695312 Z M 396.28125 1146.695312 " fill-opacity="1" fill-rule="nonzero"/><path fill="#000000" d="M 904.296875 30.167969 C 885.976562 30.167969 871.070312 45.0625 871.070312 63.378906 L 871.070312 341.664062 C 871.070312 346.960938 866.769531 351.273438 861.457031 351.273438 L 859.792969 351.273438 C 857.203125 351.273438 854.78125 350.261719 852.964844 348.421875 C 851.144531 346.582031 850.160156 344.144531 850.195312 341.554688 L 853.449219 71.550781 C 853.710938 50.550781 838.269531 32.472656 818.324219 30.394531 C 807.226562 29.195312 796.070312 32.828125 787.828125 40.277344 C 779.558594 47.722656 774.808594 58.378906 774.808594 69.507812 L 774.808594 340.523438 C 774.808594 345.75 771.339844 350.417969 766.90625 351.140625 C 762.9375 351.746094 760.253906 350.074219 758.984375 348.992188 C 756.820312 347.164062 755.597656 344.488281 755.597656 341.675781 L 755.597656 63.390625 C 755.597656 45.074219 740.6875 30.179688 722.371094 30.179688 C 707.746094 30.179688 694.652344 39.835938 690.554688 53.664062 C 676.964844 99.300781 670.074219 146.597656 670.074219 194.265625 L 670.085938 424.324219 C 668.921875 448.042969 671.335938 494.523438 700.640625 539.398438 C 711.226562 555.601562 724.292969 570.09375 739.523438 582.46875 C 747.339844 588.824219 751.925781 598.886719 751.796875 609.386719 C 750.464844 717.84375 746.402344 825.878906 739.714844 930.5 C 738.40625 951.132812 736.839844 971.765625 735.28125 992.398438 C 731.613281 1041.039062 727.824219 1091.320312 727.335938 1141.089844 C 726.277344 1250.382812 737.492188 1361.429688 760.671875 1471.160156 C 764.066406 1487.234375 778.476562 1498.886719 794.929688 1498.886719 L 831.734375 1498.886719 C 848.1875 1498.886719 862.597656 1487.234375 865.996094 1471.160156 C 889.160156 1361.480469 900.386719 1250.429688 899.332031 1141.089844 C 898.890625 1095.488281 896.539062 1063.929688 892.972656 1016.144531 C 891.226562 992.554688 889.183594 965.199219 886.964844 930.5 C 880.703125 832.363281 876.582031 672.375 875.105469 608.136719 C 874.859375 598.019531 879.300781 588.183594 887.25 581.140625 C 900.71875 569.214844 912.539062 555.625 922.363281 540.765625 C 950.640625 497.945312 956.578125 454.125 956.578125 424.90625 L 956.578125 194.253906 C 956.578125 146.585938 949.6875 99.277344 936.109375 53.664062 C 932.011719 39.824219 918.921875 30.167969 904.296875 30.167969 Z M 932.820312 424.894531 C 932.820312 450.859375 927.570312 489.761719 902.539062 527.664062 C 893.867188 540.789062 883.421875 552.796875 871.507812 563.347656 C 858.296875 575.023438 850.957031 591.554688 851.347656 608.683594 C 852.832031 673.054688 856.957031 833.433594 863.25 931.996094 C 865.472656 966.800781 867.515625 994.226562 869.285156 1017.902344 C 872.816406 1065.199219 875.144531 1096.464844 875.570312 1141.304688 C 876.617188 1248.921875 865.566406 1358.234375 842.746094 1466.222656 C 841.652344 1471.375 837.03125 1475.105469 831.734375 1475.105469 L 794.929688 1475.105469 C 789.644531 1475.105469 785.011719 1471.375 783.917969 1466.222656 C 761.097656 1358.175781 750.050781 1248.863281 751.09375 1141.304688 C 751.570312 1092.316406 755.335938 1042.429688 758.972656 994.167969 C 760.539062 973.453125 762.105469 952.726562 763.425781 931.996094 C 770.125 826.984375 774.199219 718.535156 775.554688 609.671875 C 775.78125 591.710938 768.105469 575.082031 754.515625 564.023438 C 741.199219 553.191406 729.769531 540.527344 720.539062 526.394531 C 694.902344 487.136719 692.789062 446.308594 693.835938 424.894531 L 693.835938 194.253906 C 693.835938 148.878906 700.390625 103.859375 713.328125 60.410156 C 714.457031 56.597656 718.175781 53.925781 722.371094 53.925781 C 727.585938 53.925781 731.835938 58.164062 731.835938 63.378906 L 731.835938 341.664062 C 731.835938 351.460938 736.113281 360.714844 743.585938 367.082031 C 751.070312 373.4375 760.992188 376.203125 770.707031 374.578125 C 786.589844 372 798.566406 357.355469 798.566406 340.523438 L 798.566406 69.507812 C 798.566406 65.101562 800.441406 60.875 803.734375 57.925781 C 807.035156 54.945312 811.335938 53.554688 815.863281 54.019531 C 823.597656 54.828125 829.808594 62.558594 829.703125 71.253906 L 826.4375 341.269531 C 826.328125 350.261719 829.75 358.730469 836.082031 365.121094 C 842.390625 371.511719 850.8125 375.027344 859.804688 375.027344 L 861.46875 375.027344 C 879.871094 375.027344 894.839844 360.0625 894.839844 341.664062 L 894.839844 63.390625 C 894.839844 58.175781 899.082031 53.9375 904.308594 53.9375 C 908.5 53.9375 912.21875 56.609375 913.359375 60.433594 C 926.285156 103.871094 932.84375 148.890625 932.84375 194.265625 L 932.84375 424.894531 Z M 932.820312 424.894531 " fill-opacity="1" fill-rule="nonzero"/><path fill="#000000" d="M 800.109375 1154.25 C 799.421875 1101.332031 803.449219 1048.011719 812.074219 995.785156 C 813.144531 989.308594 808.769531 983.191406 802.296875 982.136719 C 795.679688 980.960938 789.691406 985.449219 788.648438 991.910156 C 779.796875 1045.519531 775.664062 1100.242188 776.363281 1154.546875 C 777.230469 1221.828125 785.5 1289.175781 800.917969 1354.730469 C 802.203125 1360.195312 807.097656 1363.890625 812.476562 1363.890625 C 813.378906 1363.890625 814.296875 1363.78125 815.210938 1363.582031 C 821.589844 1362.074219 825.546875 1355.683594 824.046875 1349.292969 C 809.007812 1285.421875 800.964844 1219.808594 800.109375 1154.25 Z M 800.109375 1154.25 " fill-opacity="1" fill-rule="nonzero"/><path fill="#000000" d="M 1286.5625 929.859375 C 1266.234375 755.761719 1263.480469 457.332031 1278.339844 42.890625 C 1278.78125 30.855469 1273.792969 19.429688 1264.679688 11.542969 C 1255.902344 3.953125 1244.449219 0.78125 1232.710938 2.917969 C 1117.476562 24.539062 1078.40625 242.480469 1063.6875 324.535156 C 1045.261719 427.316406 1006.914062 641.195312 1130.414062 761.332031 L 1130.664062 761.570312 C 1130.664062 761.570312 1130.675781 761.582031 1130.675781 761.582031 C 1141.226562 771.820312 1146.902344 786.15625 1146.273438 800.933594 C 1144.433594 844.527344 1142.175781 886.894531 1139.40625 930.488281 C 1138.089844 951.132812 1136.53125 971.777344 1134.976562 992.410156 C 1131.292969 1041.039062 1127.503906 1091.320312 1127.027344 1141.078125 C 1125.972656 1250.417969 1137.1875 1361.464844 1160.363281 1471.148438 C 1163.761719 1487.222656 1178.171875 1498.875 1194.625 1498.875 L 1231.429688 1498.875 C 1247.882812 1498.875 1262.292969 1487.222656 1265.691406 1471.148438 C 1288.855469 1361.417969 1300.082031 1250.371094 1299.023438 1141.078125 C 1298.25 1064.285156 1294.1875 995.203125 1286.5625 929.859375 Z M 1242.417969 1466.234375 C 1241.324219 1471.386719 1236.703125 1475.117188 1231.40625 1475.117188 L 1194.601562 1475.117188 C 1189.316406 1475.117188 1184.683594 1471.386719 1183.589844 1466.234375 C 1160.769531 1358.234375 1149.71875 1248.921875 1150.765625 1141.316406 C 1151.226562 1092.34375 1154.996094 1042.453125 1158.640625 994.214844 C 1160.210938 973.476562 1161.777344 952.75 1163.097656 932.011719 C 1165.875 888.25 1168.144531 845.703125 1169.988281 801.945312 C 1170.902344 780.421875 1162.597656 759.515625 1147.214844 744.558594 L 1138.933594 753.078125 L 1146.976562 744.320312 C 1032.503906 632.964844 1069.351562 427.484375 1087.054688 328.726562 C 1099.648438 258.527344 1137.945312 44.875 1237.402344 26.210938 C 1243.09375 25.179688 1247.167969 27.839844 1249.105469 29.515625 C 1252.765625 32.675781 1254.761719 37.234375 1254.582031 42.046875 C 1239.671875 457.699219 1242.476562 757.328125 1262.945312 932.640625 C 1270.476562 997.125 1274.492188 1065.390625 1275.21875 1141.316406 C 1276.273438 1248.875 1265.238281 1358.1875 1242.417969 1466.234375 Z M 1242.417969 1466.234375 " fill-opacity="1" fill-rule="nonzero"/><path fill="#000000" d="M 1203.535156 1160.390625 C 1202.847656 1107.535156 1206.871094 1054.226562 1215.496094 1001.925781 C 1216.566406 995.453125 1212.195312 989.335938 1205.71875 988.277344 C 1199.117188 987.089844 1193.117188 991.589844 1192.070312 998.050781 C 1183.21875 1051.730469 1179.085938 1106.441406 1179.789062 1160.6875 C 1180.65625 1227.980469 1188.921875 1295.316406 1204.34375 1360.859375 C 1205.625 1366.324219 1210.519531 1370.019531 1215.902344 1370.019531 C 1216.804688 1370.019531 1217.71875 1369.910156 1218.632812 1369.710938 C 1225.011719 1368.203125 1228.96875 1361.8125 1227.472656 1355.421875 C 1212.433594 1291.5625 1204.390625 1225.9375 1203.535156 1160.390625 Z M 1203.535156 1160.390625 " fill-opacity="1" fill-rule="nonzero"/><path fill="#000000" d="M 1216.234375 356.261719 C 1209.664062 356.261719 1204.355469 361.582031 1204.355469 368.140625 L 1204.355469 694.265625 C 1204.355469 698.851562 1202.574219 703.152344 1199.304688 706.382812 C 1196.085938 709.589844 1191.808594 711.347656 1186.832031 711.347656 C 1186.796875 711.347656 1186.75 711.347656 1186.714844 711.347656 C 1181.378906 711.324219 1176.507812 708.9375 1173.347656 704.828125 C 1158.296875 685.25 1145.824219 663.789062 1136.246094 641.015625 C 1124.367188 612.78125 1117.109375 582.980469 1114.675781 552.441406 C 1114.152344 545.910156 1108.617188 541.003906 1101.878906 541.550781 C 1095.347656 542.070312 1090.464844 547.796875 1090.984375 554.332031 C 1093.636719 587.386719 1101.5 619.648438 1114.351562 650.222656 C 1124.710938 674.859375 1138.230469 698.105469 1154.519531 719.28125 C 1162.179688 729.261719 1173.859375 735.019531 1187.023438 735.09375 C 1187.105469 735.09375 1187.199219 735.09375 1187.269531 735.09375 C 1198.128906 735.09375 1208.347656 730.886719 1216.054688 723.214844 C 1223.824219 715.492188 1228.113281 705.207031 1228.113281 694.253906 L 1228.113281 368.140625 C 1228.113281 361.582031 1222.792969 356.261719 1216.234375 356.261719 Z M 1216.234375 356.261719 " fill-opacity="1" fill-rule="nonzero"/></svg>